G75*
%MOIN*%
%OFA0B0*%
%FSLAX25Y25*%
%IPPOS*%
%LPD*%
%AMOC8*
5,1,8,0,0,1.08239X$1,22.5*
%
%ADD10C,0.13843*%
%ADD11C,0.06600*%
%ADD12C,0.06000*%
%ADD13OC8,0.06300*%
%ADD14OC8,0.05200*%
%ADD15C,0.01000*%
%ADD16C,0.00600*%
D10*
X0026728Y0045933D03*
X0026728Y0115933D03*
D11*
X0081728Y0120933D03*
X0091728Y0120933D03*
X0101728Y0120933D03*
X0111728Y0120933D03*
X0121728Y0120933D03*
X0131728Y0120933D03*
X0141728Y0120933D03*
X0151728Y0120933D03*
X0161728Y0120933D03*
X0171728Y0120933D03*
X0181728Y0120933D03*
X0191728Y0120933D03*
X0191728Y0040933D03*
X0181728Y0040933D03*
X0171728Y0040933D03*
X0161728Y0040933D03*
X0151728Y0040933D03*
X0141728Y0040933D03*
X0131728Y0040933D03*
X0121728Y0040933D03*
X0111728Y0040933D03*
X0101728Y0040933D03*
X0091728Y0040933D03*
X0081728Y0040933D03*
X0071728Y0040933D03*
X0061728Y0040933D03*
X0051728Y0040933D03*
X0041728Y0040933D03*
D12*
X0146928Y0072533D02*
X0152928Y0072533D01*
X0172528Y0072533D02*
X0178528Y0072533D01*
X0178528Y0090333D02*
X0172528Y0090333D01*
X0152928Y0090333D02*
X0146928Y0090333D01*
D13*
X0065228Y0119933D03*
D14*
X0067728Y0105433D03*
X0107728Y0105433D03*
D15*
X0020927Y0035933D02*
X0016728Y0035933D01*
X0020927Y0035933D01*
X0018495Y0037700D01*
X0018495Y0037700D01*
X0018495Y0037700D01*
X0016728Y0040132D01*
X0016728Y0035933D01*
X0016728Y0036932D02*
X0019553Y0036932D01*
X0018328Y0037930D02*
X0016728Y0037930D01*
X0016728Y0038929D02*
X0017603Y0038929D01*
X0016877Y0039927D02*
X0016728Y0039927D01*
X0019264Y0041924D02*
X0019440Y0041924D01*
X0019557Y0041764D02*
X0019759Y0041276D01*
X0020316Y0040719D01*
X0021083Y0039663D01*
X0021766Y0039269D01*
X0022071Y0038963D01*
X0022862Y0038636D01*
X0023948Y0038009D01*
X0022869Y0038359D01*
X0022869Y0038360D02*
X0020718Y0039923D01*
X0019155Y0042074D01*
X0018333Y0044603D01*
X0018228Y0045933D01*
X0018228Y0070312D01*
X0020228Y0072312D01*
X0020228Y0089554D01*
X0019350Y0090433D01*
X0018228Y0091554D01*
X0018228Y0115933D01*
X0018333Y0117263D01*
X0019155Y0119792D01*
X0020718Y0121943D01*
X0022869Y0123507D01*
X0023948Y0123857D01*
X0022862Y0123230D01*
X0022071Y0122903D01*
X0021766Y0122597D01*
X0021083Y0122203D01*
X0020316Y0121147D01*
X0019759Y0120590D01*
X0019557Y0120102D01*
X0019021Y0119365D01*
X0018778Y0118222D01*
X0018507Y0117568D01*
X0018507Y0116948D01*
X0018291Y0115933D01*
X0018507Y0114918D01*
X0018507Y0114298D01*
X0018778Y0113644D01*
X0019021Y0112501D01*
X0019557Y0111764D01*
X0019759Y0111276D01*
X0020316Y0110719D01*
X0021083Y0109663D01*
X0021766Y0109269D01*
X0022071Y0108963D01*
X0022862Y0108636D01*
X0024121Y0107909D01*
X0024786Y0107839D01*
X0025093Y0107712D01*
X0025997Y0107712D01*
X0027610Y0107542D01*
X0028132Y0107712D01*
X0028364Y0107712D01*
X0029207Y0108061D01*
X0030947Y0108626D01*
X0031266Y0108914D01*
X0031385Y0108963D01*
X0031965Y0109544D01*
X0033554Y0110974D01*
X0033681Y0111259D01*
X0033698Y0111276D01*
X0033824Y0111580D01*
X0034981Y0114179D01*
X0034981Y0117687D01*
X0033824Y0120286D01*
X0033698Y0120590D01*
X0033681Y0120607D01*
X0033554Y0120892D01*
X0031965Y0122323D01*
X0031385Y0122903D01*
X0031266Y0122952D01*
X0030947Y0123240D01*
X0029207Y0123805D01*
X0028364Y0124154D01*
X0028132Y0124154D01*
X0027610Y0124324D01*
X0025997Y0124154D01*
X0025093Y0124154D01*
X0024786Y0124027D01*
X0024320Y0123978D01*
X0025399Y0124328D01*
X0026728Y0124433D01*
X0078723Y0124433D01*
X0077829Y0123539D01*
X0077128Y0121848D01*
X0077128Y0120018D01*
X0077829Y0118327D01*
X0079123Y0117033D01*
X0080813Y0116333D01*
X0082643Y0116333D01*
X0084334Y0117033D01*
X0085628Y0118327D01*
X0086328Y0120018D01*
X0086328Y0121848D01*
X0085628Y0123539D01*
X0084734Y0124433D01*
X0088723Y0124433D01*
X0087829Y0123539D01*
X0087128Y0121848D01*
X0087128Y0120018D01*
X0087829Y0118327D01*
X0089123Y0117033D01*
X0090813Y0116333D01*
X0092643Y0116333D01*
X0094334Y0117033D01*
X0095628Y0118327D01*
X0096328Y0120018D01*
X0096328Y0121848D01*
X0095628Y0123539D01*
X0094734Y0124433D01*
X0098723Y0124433D01*
X0097829Y0123539D01*
X0097128Y0121848D01*
X0097128Y0120018D01*
X0097829Y0118327D01*
X0099123Y0117033D01*
X0100813Y0116333D01*
X0102643Y0116333D01*
X0104334Y0117033D01*
X0105628Y0118327D01*
X0106328Y0120018D01*
X0106328Y0121848D01*
X0105628Y0123539D01*
X0104734Y0124433D01*
X0108723Y0124433D01*
X0107829Y0123539D01*
X0107128Y0121848D01*
X0107128Y0120018D01*
X0107545Y0119012D01*
X0106128Y0117596D01*
X0106128Y0109333D01*
X0106113Y0109333D01*
X0103828Y0107048D01*
X0103828Y0103818D01*
X0106113Y0101533D01*
X0109344Y0101533D01*
X0111628Y0103818D01*
X0111628Y0107048D01*
X0109344Y0109333D01*
X0109328Y0109333D01*
X0109328Y0116270D01*
X0109808Y0116750D01*
X0110813Y0116333D01*
X0112643Y0116333D01*
X0114334Y0117033D01*
X0115628Y0118327D01*
X0116328Y0120018D01*
X0116328Y0121848D01*
X0115628Y0123539D01*
X0114734Y0124433D01*
X0118723Y0124433D01*
X0117829Y0123539D01*
X0117128Y0121848D01*
X0117128Y0120018D01*
X0117829Y0118327D01*
X0119123Y0117033D01*
X0120128Y0116617D01*
X0120128Y0099096D01*
X0113566Y0092533D01*
X0062328Y0092533D01*
X0062328Y0114770D01*
X0063213Y0115655D01*
X0063385Y0115483D01*
X0066128Y0115483D01*
X0066128Y0109333D01*
X0066113Y0109333D01*
X0063828Y0107048D01*
X0063828Y0103818D01*
X0066113Y0101533D01*
X0069344Y0101533D01*
X0071628Y0103818D01*
X0071628Y0107048D01*
X0069344Y0109333D01*
X0069328Y0109333D01*
X0069328Y0117740D01*
X0069678Y0118090D01*
X0069678Y0121776D01*
X0067072Y0124383D01*
X0063385Y0124383D01*
X0060778Y0121776D01*
X0060778Y0118090D01*
X0060950Y0117918D01*
X0060066Y0117033D01*
X0059128Y0116096D01*
X0059128Y0090270D01*
X0060066Y0089333D01*
X0114891Y0089333D01*
X0122391Y0096833D01*
X0123328Y0097770D01*
X0123328Y0116617D01*
X0124334Y0117033D01*
X0125628Y0118327D01*
X0126328Y0120018D01*
X0126328Y0121848D01*
X0125628Y0123539D01*
X0124734Y0124433D01*
X0128723Y0124433D01*
X0127829Y0123539D01*
X0127128Y0121848D01*
X0127128Y0120018D01*
X0127829Y0118327D01*
X0129123Y0117033D01*
X0130813Y0116333D01*
X0132643Y0116333D01*
X0134334Y0117033D01*
X0135628Y0118327D01*
X0136328Y0120018D01*
X0136328Y0121848D01*
X0135628Y0123539D01*
X0134734Y0124433D01*
X0138723Y0124433D01*
X0137829Y0123539D01*
X0137128Y0121848D01*
X0137128Y0120018D01*
X0137829Y0118327D01*
X0139123Y0117033D01*
X0140813Y0116333D01*
X0142643Y0116333D01*
X0144334Y0117033D01*
X0145628Y0118327D01*
X0146328Y0120018D01*
X0146328Y0121848D01*
X0145628Y0123539D01*
X0144734Y0124433D01*
X0148723Y0124433D01*
X0147829Y0123539D01*
X0147128Y0121848D01*
X0147128Y0120018D01*
X0147829Y0118327D01*
X0149123Y0117033D01*
X0150813Y0116333D01*
X0152643Y0116333D01*
X0154334Y0117033D01*
X0155628Y0118327D01*
X0156328Y0120018D01*
X0156328Y0121848D01*
X0155628Y0123539D01*
X0154734Y0124433D01*
X0158723Y0124433D01*
X0157829Y0123539D01*
X0157128Y0121848D01*
X0157128Y0120018D01*
X0157829Y0118327D01*
X0159123Y0117033D01*
X0160813Y0116333D01*
X0162643Y0116333D01*
X0164334Y0117033D01*
X0165628Y0118327D01*
X0166328Y0120018D01*
X0166328Y0121848D01*
X0165628Y0123539D01*
X0164734Y0124433D01*
X0168723Y0124433D01*
X0167829Y0123539D01*
X0167128Y0121848D01*
X0167128Y0120018D01*
X0167829Y0118327D01*
X0169123Y0117033D01*
X0170128Y0116617D01*
X0170128Y0112796D01*
X0151966Y0094633D01*
X0146073Y0094633D01*
X0144493Y0093978D01*
X0143283Y0092769D01*
X0142628Y0091188D01*
X0142628Y0089478D01*
X0143283Y0087897D01*
X0144493Y0086688D01*
X0146073Y0086033D01*
X0153784Y0086033D01*
X0155364Y0086688D01*
X0156574Y0087897D01*
X0157228Y0089478D01*
X0157228Y0091188D01*
X0156574Y0092769D01*
X0155600Y0093742D01*
X0172391Y0110533D01*
X0173328Y0111470D01*
X0173328Y0116617D01*
X0174334Y0117033D01*
X0175628Y0118327D01*
X0176328Y0120018D01*
X0176328Y0121848D01*
X0175628Y0123539D01*
X0174734Y0124433D01*
X0178723Y0124433D01*
X0177829Y0123539D01*
X0177128Y0121848D01*
X0177128Y0120018D01*
X0177829Y0118327D01*
X0179123Y0117033D01*
X0180813Y0116333D01*
X0182643Y0116333D01*
X0184334Y0117033D01*
X0185628Y0118327D01*
X0186328Y0120018D01*
X0186328Y0121848D01*
X0185628Y0123539D01*
X0184734Y0124433D01*
X0186728Y0124433D01*
X0186728Y0037433D01*
X0184734Y0037433D01*
X0185628Y0038327D01*
X0186328Y0040018D01*
X0186328Y0041848D01*
X0185628Y0043539D01*
X0184334Y0044833D01*
X0182643Y0045533D01*
X0180813Y0045533D01*
X0179123Y0044833D01*
X0177829Y0043539D01*
X0177128Y0041848D01*
X0177128Y0040018D01*
X0177829Y0038327D01*
X0178723Y0037433D01*
X0174734Y0037433D01*
X0175628Y0038327D01*
X0176328Y0040018D01*
X0176328Y0041848D01*
X0175628Y0043539D01*
X0174334Y0044833D01*
X0172643Y0045533D01*
X0170813Y0045533D01*
X0169123Y0044833D01*
X0167829Y0043539D01*
X0167128Y0041848D01*
X0167128Y0040018D01*
X0167829Y0038327D01*
X0168723Y0037433D01*
X0164734Y0037433D01*
X0165628Y0038327D01*
X0166328Y0040018D01*
X0166328Y0041848D01*
X0165628Y0043539D01*
X0164334Y0044833D01*
X0162643Y0045533D01*
X0160813Y0045533D01*
X0159123Y0044833D01*
X0157829Y0043539D01*
X0157128Y0041848D01*
X0157128Y0040018D01*
X0157829Y0038327D01*
X0158723Y0037433D01*
X0154734Y0037433D01*
X0155628Y0038327D01*
X0156328Y0040018D01*
X0156328Y0041848D01*
X0155628Y0043539D01*
X0154334Y0044833D01*
X0152643Y0045533D01*
X0150813Y0045533D01*
X0149123Y0044833D01*
X0147829Y0043539D01*
X0147128Y0041848D01*
X0147128Y0040018D01*
X0147829Y0038327D01*
X0148723Y0037433D01*
X0144734Y0037433D01*
X0145628Y0038327D01*
X0146328Y0040018D01*
X0146328Y0041848D01*
X0145628Y0043539D01*
X0144334Y0044833D01*
X0142643Y0045533D01*
X0140813Y0045533D01*
X0139123Y0044833D01*
X0137829Y0043539D01*
X0137128Y0041848D01*
X0137128Y0040018D01*
X0137829Y0038327D01*
X0138723Y0037433D01*
X0134734Y0037433D01*
X0135628Y0038327D01*
X0136328Y0040018D01*
X0136328Y0041848D01*
X0135628Y0043539D01*
X0134334Y0044833D01*
X0132643Y0045533D01*
X0130813Y0045533D01*
X0129123Y0044833D01*
X0127829Y0043539D01*
X0127128Y0041848D01*
X0127128Y0040018D01*
X0127829Y0038327D01*
X0128723Y0037433D01*
X0124734Y0037433D01*
X0125628Y0038327D01*
X0126328Y0040018D01*
X0126328Y0041848D01*
X0125628Y0043539D01*
X0124334Y0044833D01*
X0122643Y0045533D01*
X0120813Y0045533D01*
X0119123Y0044833D01*
X0117829Y0043539D01*
X0117128Y0041848D01*
X0117128Y0040018D01*
X0117829Y0038327D01*
X0118723Y0037433D01*
X0114734Y0037433D01*
X0115628Y0038327D01*
X0116328Y0040018D01*
X0116328Y0041848D01*
X0115628Y0043539D01*
X0114334Y0044833D01*
X0112643Y0045533D01*
X0110813Y0045533D01*
X0109123Y0044833D01*
X0107829Y0043539D01*
X0107128Y0041848D01*
X0107128Y0040018D01*
X0107829Y0038327D01*
X0108723Y0037433D01*
X0104734Y0037433D01*
X0105628Y0038327D01*
X0106328Y0040018D01*
X0106328Y0041848D01*
X0105628Y0043539D01*
X0104334Y0044833D01*
X0102643Y0045533D01*
X0100813Y0045533D01*
X0099123Y0044833D01*
X0097829Y0043539D01*
X0097128Y0041848D01*
X0097128Y0040018D01*
X0097829Y0038327D01*
X0098723Y0037433D01*
X0094734Y0037433D01*
X0095628Y0038327D01*
X0096328Y0040018D01*
X0096328Y0041848D01*
X0095628Y0043539D01*
X0094334Y0044833D01*
X0092643Y0045533D01*
X0090813Y0045533D01*
X0089123Y0044833D01*
X0087829Y0043539D01*
X0087128Y0041848D01*
X0087128Y0040018D01*
X0087829Y0038327D01*
X0088723Y0037433D01*
X0084734Y0037433D01*
X0085628Y0038327D01*
X0086328Y0040018D01*
X0086328Y0041848D01*
X0085628Y0043539D01*
X0084334Y0044833D01*
X0082643Y0045533D01*
X0080813Y0045533D01*
X0079123Y0044833D01*
X0077829Y0043539D01*
X0077128Y0041848D01*
X0077128Y0040018D01*
X0077829Y0038327D01*
X0078723Y0037433D01*
X0074734Y0037433D01*
X0075628Y0038327D01*
X0076328Y0040018D01*
X0076328Y0041848D01*
X0075912Y0042854D01*
X0103991Y0070933D01*
X0142937Y0070933D01*
X0143283Y0070097D01*
X0144493Y0068888D01*
X0146073Y0068233D01*
X0153784Y0068233D01*
X0155364Y0068888D01*
X0156574Y0070097D01*
X0157228Y0071678D01*
X0157228Y0073388D01*
X0156574Y0074969D01*
X0155364Y0076178D01*
X0153784Y0076833D01*
X0146073Y0076833D01*
X0144493Y0076178D01*
X0143283Y0074969D01*
X0142937Y0074133D01*
X0102666Y0074133D01*
X0101728Y0073196D01*
X0073649Y0045116D01*
X0072643Y0045533D01*
X0070813Y0045533D01*
X0069123Y0044833D01*
X0067829Y0043539D01*
X0067128Y0041848D01*
X0067128Y0040018D01*
X0067829Y0038327D01*
X0068723Y0037433D01*
X0064734Y0037433D01*
X0065628Y0038327D01*
X0066328Y0040018D01*
X0066328Y0041848D01*
X0065628Y0043539D01*
X0064334Y0044833D01*
X0062643Y0045533D01*
X0060813Y0045533D01*
X0059123Y0044833D01*
X0057829Y0043539D01*
X0057128Y0041848D01*
X0057128Y0040018D01*
X0057829Y0038327D01*
X0058723Y0037433D01*
X0054734Y0037433D01*
X0055628Y0038327D01*
X0056328Y0040018D01*
X0056328Y0041848D01*
X0055628Y0043539D01*
X0054334Y0044833D01*
X0052643Y0045533D01*
X0050813Y0045533D01*
X0049123Y0044833D01*
X0047829Y0043539D01*
X0047128Y0041848D01*
X0047128Y0040018D01*
X0047829Y0038327D01*
X0048723Y0037433D01*
X0044734Y0037433D01*
X0045628Y0038327D01*
X0046328Y0040018D01*
X0046328Y0041848D01*
X0045628Y0043539D01*
X0044334Y0044833D01*
X0042643Y0045533D01*
X0040813Y0045533D01*
X0039123Y0044833D01*
X0037829Y0043539D01*
X0037128Y0041848D01*
X0037128Y0040018D01*
X0037829Y0038327D01*
X0038723Y0037433D01*
X0026728Y0037433D01*
X0025399Y0037538D01*
X0024320Y0037888D01*
X0024786Y0037839D01*
X0025093Y0037712D01*
X0025997Y0037712D01*
X0027610Y0037542D01*
X0028132Y0037712D01*
X0028364Y0037712D01*
X0029207Y0038061D01*
X0030947Y0038626D01*
X0031266Y0038914D01*
X0031385Y0038963D01*
X0031965Y0039544D01*
X0033554Y0040974D01*
X0033681Y0041259D01*
X0033698Y0041276D01*
X0033824Y0041580D01*
X0034981Y0044179D01*
X0034981Y0047687D01*
X0033824Y0050286D01*
X0033698Y0050590D01*
X0033681Y0050607D01*
X0033554Y0050892D01*
X0031965Y0052323D01*
X0031385Y0052903D01*
X0031266Y0052952D01*
X0030947Y0053240D01*
X0029207Y0053805D01*
X0028364Y0054154D01*
X0028132Y0054154D01*
X0027610Y0054324D01*
X0025997Y0054154D01*
X0025093Y0054154D01*
X0024786Y0054027D01*
X0024121Y0053957D01*
X0022862Y0053230D01*
X0022071Y0052903D01*
X0021766Y0052597D01*
X0021083Y0052203D01*
X0020316Y0051147D01*
X0019759Y0050590D01*
X0019557Y0050102D01*
X0019021Y0049365D01*
X0018778Y0048222D01*
X0018507Y0047568D01*
X0018507Y0046948D01*
X0018291Y0045933D01*
X0018507Y0044918D01*
X0018507Y0044298D01*
X0018778Y0043644D01*
X0019021Y0042501D01*
X0019557Y0041764D01*
X0019989Y0040926D02*
X0020109Y0040926D01*
X0020715Y0039927D02*
X0020891Y0039927D01*
X0022086Y0038929D02*
X0022155Y0038929D01*
X0022869Y0038360D02*
X0022869Y0038359D01*
X0018931Y0042923D02*
X0018879Y0042923D01*
X0018663Y0043921D02*
X0018555Y0043921D01*
X0018507Y0044920D02*
X0018308Y0044920D01*
X0018295Y0045918D02*
X0018230Y0045918D01*
X0018228Y0046917D02*
X0018500Y0046917D01*
X0018651Y0047915D02*
X0018228Y0047915D01*
X0018228Y0048914D02*
X0018925Y0048914D01*
X0019419Y0049912D02*
X0018228Y0049912D01*
X0018228Y0050911D02*
X0020079Y0050911D01*
X0020869Y0051909D02*
X0018228Y0051909D01*
X0018228Y0052908D02*
X0022084Y0052908D01*
X0024033Y0053906D02*
X0018228Y0053906D01*
X0018228Y0054905D02*
X0083437Y0054905D01*
X0082439Y0053906D02*
X0028962Y0053906D01*
X0031373Y0052908D02*
X0081440Y0052908D01*
X0080442Y0051909D02*
X0032424Y0051909D01*
X0033533Y0050911D02*
X0079443Y0050911D01*
X0078445Y0049912D02*
X0033990Y0049912D01*
X0034435Y0048914D02*
X0077446Y0048914D01*
X0076448Y0047915D02*
X0034879Y0047915D01*
X0034981Y0046917D02*
X0075449Y0046917D01*
X0074451Y0045918D02*
X0034981Y0045918D01*
X0034981Y0044920D02*
X0039333Y0044920D01*
X0038211Y0043921D02*
X0034866Y0043921D01*
X0034422Y0042923D02*
X0037573Y0042923D01*
X0037160Y0041924D02*
X0033977Y0041924D01*
X0033500Y0040926D02*
X0037128Y0040926D01*
X0037166Y0039927D02*
X0032391Y0039927D01*
X0031301Y0038929D02*
X0037580Y0038929D01*
X0038226Y0037930D02*
X0028891Y0037930D01*
X0045231Y0037930D02*
X0048226Y0037930D01*
X0047580Y0038929D02*
X0045877Y0038929D01*
X0046291Y0039927D02*
X0047166Y0039927D01*
X0047128Y0040926D02*
X0046328Y0040926D01*
X0046297Y0041924D02*
X0047160Y0041924D01*
X0047573Y0042923D02*
X0045883Y0042923D01*
X0045246Y0043921D02*
X0048211Y0043921D01*
X0049333Y0044920D02*
X0044124Y0044920D01*
X0054124Y0044920D02*
X0059333Y0044920D01*
X0058211Y0043921D02*
X0055246Y0043921D01*
X0055883Y0042923D02*
X0057573Y0042923D01*
X0057160Y0041924D02*
X0056297Y0041924D01*
X0056328Y0040926D02*
X0057128Y0040926D01*
X0057166Y0039927D02*
X0056291Y0039927D01*
X0055877Y0038929D02*
X0057580Y0038929D01*
X0058226Y0037930D02*
X0055231Y0037930D01*
X0065231Y0037930D02*
X0068226Y0037930D01*
X0067580Y0038929D02*
X0065877Y0038929D01*
X0066291Y0039927D02*
X0067166Y0039927D01*
X0067128Y0040926D02*
X0066328Y0040926D01*
X0066297Y0041924D02*
X0067160Y0041924D01*
X0067573Y0042923D02*
X0065883Y0042923D01*
X0065246Y0043921D02*
X0068211Y0043921D01*
X0069333Y0044920D02*
X0064124Y0044920D01*
X0075981Y0042923D02*
X0077573Y0042923D01*
X0077160Y0041924D02*
X0076297Y0041924D01*
X0076328Y0040926D02*
X0077128Y0040926D01*
X0077166Y0039927D02*
X0076291Y0039927D01*
X0075877Y0038929D02*
X0077580Y0038929D01*
X0078226Y0037930D02*
X0075231Y0037930D01*
X0076979Y0043921D02*
X0078211Y0043921D01*
X0077978Y0044920D02*
X0079333Y0044920D01*
X0078976Y0045918D02*
X0186728Y0045918D01*
X0186728Y0044920D02*
X0184124Y0044920D01*
X0185246Y0043921D02*
X0186728Y0043921D01*
X0186728Y0042923D02*
X0185883Y0042923D01*
X0186297Y0041924D02*
X0186728Y0041924D01*
X0186728Y0040926D02*
X0186328Y0040926D01*
X0186291Y0039927D02*
X0186728Y0039927D01*
X0186728Y0038929D02*
X0185877Y0038929D01*
X0185231Y0037930D02*
X0186728Y0037930D01*
X0178226Y0037930D02*
X0175231Y0037930D01*
X0175877Y0038929D02*
X0177580Y0038929D01*
X0177166Y0039927D02*
X0176291Y0039927D01*
X0176328Y0040926D02*
X0177128Y0040926D01*
X0177160Y0041924D02*
X0176297Y0041924D01*
X0175883Y0042923D02*
X0177573Y0042923D01*
X0178211Y0043921D02*
X0175246Y0043921D01*
X0174124Y0044920D02*
X0179333Y0044920D01*
X0186728Y0046917D02*
X0079975Y0046917D01*
X0080973Y0047915D02*
X0186728Y0047915D01*
X0186728Y0048914D02*
X0081972Y0048914D01*
X0082970Y0049912D02*
X0186728Y0049912D01*
X0186728Y0050911D02*
X0083969Y0050911D01*
X0084967Y0051909D02*
X0186728Y0051909D01*
X0186728Y0052908D02*
X0085966Y0052908D01*
X0086964Y0053906D02*
X0186728Y0053906D01*
X0186728Y0054905D02*
X0087963Y0054905D01*
X0088961Y0055903D02*
X0186728Y0055903D01*
X0186728Y0056902D02*
X0089960Y0056902D01*
X0090958Y0057900D02*
X0186728Y0057900D01*
X0186728Y0058899D02*
X0091957Y0058899D01*
X0092955Y0059897D02*
X0186728Y0059897D01*
X0186728Y0060896D02*
X0093954Y0060896D01*
X0094952Y0061894D02*
X0186728Y0061894D01*
X0186728Y0062893D02*
X0095951Y0062893D01*
X0096949Y0063891D02*
X0186728Y0063891D01*
X0186728Y0064890D02*
X0097948Y0064890D01*
X0098946Y0065888D02*
X0186728Y0065888D01*
X0186728Y0066887D02*
X0099945Y0066887D01*
X0100943Y0067885D02*
X0186728Y0067885D01*
X0186728Y0068884D02*
X0180955Y0068884D01*
X0180964Y0068888D02*
X0182174Y0070097D01*
X0182828Y0071678D01*
X0182828Y0073388D01*
X0182174Y0074969D01*
X0180964Y0076178D01*
X0179384Y0076833D01*
X0171673Y0076833D01*
X0170093Y0076178D01*
X0168883Y0074969D01*
X0168228Y0073388D01*
X0168228Y0071678D01*
X0168883Y0070097D01*
X0170093Y0068888D01*
X0171673Y0068233D01*
X0179384Y0068233D01*
X0180964Y0068888D01*
X0181959Y0069882D02*
X0186728Y0069882D01*
X0186728Y0070881D02*
X0182498Y0070881D01*
X0182828Y0071879D02*
X0186728Y0071879D01*
X0186728Y0072878D02*
X0182828Y0072878D01*
X0182626Y0073877D02*
X0186728Y0073877D01*
X0186728Y0074875D02*
X0182213Y0074875D01*
X0181269Y0075874D02*
X0186728Y0075874D01*
X0186728Y0076872D02*
X0020228Y0076872D01*
X0020228Y0075874D02*
X0144188Y0075874D01*
X0143244Y0074875D02*
X0020228Y0074875D01*
X0020228Y0073877D02*
X0102409Y0073877D01*
X0101411Y0072878D02*
X0020228Y0072878D01*
X0019796Y0071879D02*
X0100412Y0071879D01*
X0099414Y0070881D02*
X0018798Y0070881D01*
X0018228Y0069882D02*
X0098415Y0069882D01*
X0097416Y0068884D02*
X0018228Y0068884D01*
X0018228Y0067885D02*
X0096418Y0067885D01*
X0095419Y0066887D02*
X0018228Y0066887D01*
X0018228Y0065888D02*
X0094421Y0065888D01*
X0093422Y0064890D02*
X0018228Y0064890D01*
X0018228Y0063891D02*
X0092424Y0063891D01*
X0091425Y0062893D02*
X0018228Y0062893D01*
X0018228Y0061894D02*
X0090427Y0061894D01*
X0089428Y0060896D02*
X0018228Y0060896D01*
X0018228Y0059897D02*
X0088430Y0059897D01*
X0087431Y0058899D02*
X0018228Y0058899D01*
X0018228Y0057900D02*
X0086433Y0057900D01*
X0085434Y0056902D02*
X0018228Y0056902D01*
X0018228Y0055903D02*
X0084436Y0055903D01*
X0084124Y0044920D02*
X0089333Y0044920D01*
X0088211Y0043921D02*
X0085246Y0043921D01*
X0085883Y0042923D02*
X0087573Y0042923D01*
X0087160Y0041924D02*
X0086297Y0041924D01*
X0086328Y0040926D02*
X0087128Y0040926D01*
X0087166Y0039927D02*
X0086291Y0039927D01*
X0085877Y0038929D02*
X0087580Y0038929D01*
X0088226Y0037930D02*
X0085231Y0037930D01*
X0095231Y0037930D02*
X0098226Y0037930D01*
X0097580Y0038929D02*
X0095877Y0038929D01*
X0096291Y0039927D02*
X0097166Y0039927D01*
X0097128Y0040926D02*
X0096328Y0040926D01*
X0096297Y0041924D02*
X0097160Y0041924D01*
X0097573Y0042923D02*
X0095883Y0042923D01*
X0095246Y0043921D02*
X0098211Y0043921D01*
X0099333Y0044920D02*
X0094124Y0044920D01*
X0104124Y0044920D02*
X0109333Y0044920D01*
X0108211Y0043921D02*
X0105246Y0043921D01*
X0105883Y0042923D02*
X0107573Y0042923D01*
X0107160Y0041924D02*
X0106297Y0041924D01*
X0106328Y0040926D02*
X0107128Y0040926D01*
X0107166Y0039927D02*
X0106291Y0039927D01*
X0105877Y0038929D02*
X0107580Y0038929D01*
X0108226Y0037930D02*
X0105231Y0037930D01*
X0115231Y0037930D02*
X0118226Y0037930D01*
X0117580Y0038929D02*
X0115877Y0038929D01*
X0116291Y0039927D02*
X0117166Y0039927D01*
X0117128Y0040926D02*
X0116328Y0040926D01*
X0116297Y0041924D02*
X0117160Y0041924D01*
X0117573Y0042923D02*
X0115883Y0042923D01*
X0115246Y0043921D02*
X0118211Y0043921D01*
X0119333Y0044920D02*
X0114124Y0044920D01*
X0124124Y0044920D02*
X0129333Y0044920D01*
X0128211Y0043921D02*
X0125246Y0043921D01*
X0125883Y0042923D02*
X0127573Y0042923D01*
X0127160Y0041924D02*
X0126297Y0041924D01*
X0126328Y0040926D02*
X0127128Y0040926D01*
X0127166Y0039927D02*
X0126291Y0039927D01*
X0125877Y0038929D02*
X0127580Y0038929D01*
X0128226Y0037930D02*
X0125231Y0037930D01*
X0135231Y0037930D02*
X0138226Y0037930D01*
X0137580Y0038929D02*
X0135877Y0038929D01*
X0136291Y0039927D02*
X0137166Y0039927D01*
X0137128Y0040926D02*
X0136328Y0040926D01*
X0136297Y0041924D02*
X0137160Y0041924D01*
X0137573Y0042923D02*
X0135883Y0042923D01*
X0135246Y0043921D02*
X0138211Y0043921D01*
X0139333Y0044920D02*
X0134124Y0044920D01*
X0144124Y0044920D02*
X0149333Y0044920D01*
X0148211Y0043921D02*
X0145246Y0043921D01*
X0145883Y0042923D02*
X0147573Y0042923D01*
X0147160Y0041924D02*
X0146297Y0041924D01*
X0146328Y0040926D02*
X0147128Y0040926D01*
X0147166Y0039927D02*
X0146291Y0039927D01*
X0145877Y0038929D02*
X0147580Y0038929D01*
X0148226Y0037930D02*
X0145231Y0037930D01*
X0155231Y0037930D02*
X0158226Y0037930D01*
X0157580Y0038929D02*
X0155877Y0038929D01*
X0156291Y0039927D02*
X0157166Y0039927D01*
X0157128Y0040926D02*
X0156328Y0040926D01*
X0156297Y0041924D02*
X0157160Y0041924D01*
X0157573Y0042923D02*
X0155883Y0042923D01*
X0155246Y0043921D02*
X0158211Y0043921D01*
X0159333Y0044920D02*
X0154124Y0044920D01*
X0164124Y0044920D02*
X0169333Y0044920D01*
X0168211Y0043921D02*
X0165246Y0043921D01*
X0165883Y0042923D02*
X0167573Y0042923D01*
X0167160Y0041924D02*
X0166297Y0041924D01*
X0166328Y0040926D02*
X0167128Y0040926D01*
X0167166Y0039927D02*
X0166291Y0039927D01*
X0165877Y0038929D02*
X0167580Y0038929D01*
X0168226Y0037930D02*
X0165231Y0037930D01*
X0170102Y0068884D02*
X0155355Y0068884D01*
X0156359Y0069882D02*
X0169098Y0069882D01*
X0168558Y0070881D02*
X0156898Y0070881D01*
X0157228Y0071879D02*
X0168228Y0071879D01*
X0168228Y0072878D02*
X0157228Y0072878D01*
X0157026Y0073877D02*
X0168431Y0073877D01*
X0168844Y0074875D02*
X0156613Y0074875D01*
X0155669Y0075874D02*
X0169788Y0075874D01*
X0171673Y0086033D02*
X0179384Y0086033D01*
X0180964Y0086688D01*
X0182174Y0087897D01*
X0182828Y0089478D01*
X0182828Y0091188D01*
X0182174Y0092769D01*
X0180964Y0093978D01*
X0179384Y0094633D01*
X0171673Y0094633D01*
X0170093Y0093978D01*
X0168883Y0092769D01*
X0168228Y0091188D01*
X0168228Y0089478D01*
X0168883Y0087897D01*
X0170093Y0086688D01*
X0171673Y0086033D01*
X0169923Y0086857D02*
X0155534Y0086857D01*
X0156532Y0087856D02*
X0168925Y0087856D01*
X0168487Y0088854D02*
X0156970Y0088854D01*
X0157228Y0089853D02*
X0168228Y0089853D01*
X0168228Y0090851D02*
X0157228Y0090851D01*
X0156954Y0091850D02*
X0168502Y0091850D01*
X0168962Y0092848D02*
X0156494Y0092848D01*
X0155705Y0093847D02*
X0169961Y0093847D01*
X0161696Y0099838D02*
X0186728Y0099838D01*
X0186728Y0100836D02*
X0162694Y0100836D01*
X0163693Y0101835D02*
X0186728Y0101835D01*
X0186728Y0102833D02*
X0164691Y0102833D01*
X0165690Y0103832D02*
X0186728Y0103832D01*
X0186728Y0104830D02*
X0166688Y0104830D01*
X0167687Y0105829D02*
X0186728Y0105829D01*
X0186728Y0106827D02*
X0168685Y0106827D01*
X0169684Y0107826D02*
X0186728Y0107826D01*
X0186728Y0108824D02*
X0170682Y0108824D01*
X0171681Y0109823D02*
X0186728Y0109823D01*
X0186728Y0110821D02*
X0172679Y0110821D01*
X0173328Y0111820D02*
X0186728Y0111820D01*
X0186728Y0112818D02*
X0173328Y0112818D01*
X0173328Y0113817D02*
X0186728Y0113817D01*
X0186728Y0114815D02*
X0173328Y0114815D01*
X0173328Y0115814D02*
X0186728Y0115814D01*
X0186728Y0116812D02*
X0183801Y0116812D01*
X0185112Y0117811D02*
X0186728Y0117811D01*
X0186728Y0118810D02*
X0185828Y0118810D01*
X0186241Y0119808D02*
X0186728Y0119808D01*
X0186728Y0120807D02*
X0186328Y0120807D01*
X0186328Y0121805D02*
X0186728Y0121805D01*
X0186728Y0122804D02*
X0185933Y0122804D01*
X0185365Y0123802D02*
X0186728Y0123802D01*
X0178092Y0123802D02*
X0175365Y0123802D01*
X0175933Y0122804D02*
X0177524Y0122804D01*
X0177128Y0121805D02*
X0176328Y0121805D01*
X0176328Y0120807D02*
X0177128Y0120807D01*
X0177215Y0119808D02*
X0176241Y0119808D01*
X0175828Y0118810D02*
X0177629Y0118810D01*
X0178345Y0117811D02*
X0175112Y0117811D01*
X0173801Y0116812D02*
X0179656Y0116812D01*
X0170128Y0115814D02*
X0123328Y0115814D01*
X0123328Y0114815D02*
X0170128Y0114815D01*
X0170128Y0113817D02*
X0123328Y0113817D01*
X0123328Y0112818D02*
X0170128Y0112818D01*
X0169152Y0111820D02*
X0123328Y0111820D01*
X0123328Y0110821D02*
X0168154Y0110821D01*
X0167155Y0109823D02*
X0123328Y0109823D01*
X0123328Y0108824D02*
X0166157Y0108824D01*
X0165158Y0107826D02*
X0123328Y0107826D01*
X0123328Y0106827D02*
X0164160Y0106827D01*
X0163161Y0105829D02*
X0123328Y0105829D01*
X0123328Y0104830D02*
X0162163Y0104830D01*
X0161164Y0103832D02*
X0123328Y0103832D01*
X0123328Y0102833D02*
X0160166Y0102833D01*
X0159167Y0101835D02*
X0123328Y0101835D01*
X0123328Y0100836D02*
X0158169Y0100836D01*
X0157170Y0099838D02*
X0123328Y0099838D01*
X0123328Y0098839D02*
X0156172Y0098839D01*
X0155173Y0097841D02*
X0123328Y0097841D01*
X0122400Y0096842D02*
X0154175Y0096842D01*
X0153176Y0095844D02*
X0121402Y0095844D01*
X0120403Y0094845D02*
X0152178Y0094845D01*
X0156703Y0094845D02*
X0186728Y0094845D01*
X0186728Y0093847D02*
X0181096Y0093847D01*
X0182094Y0092848D02*
X0186728Y0092848D01*
X0186728Y0091850D02*
X0182554Y0091850D01*
X0182828Y0090851D02*
X0186728Y0090851D01*
X0186728Y0089853D02*
X0182828Y0089853D01*
X0182570Y0088854D02*
X0186728Y0088854D01*
X0186728Y0087856D02*
X0182132Y0087856D01*
X0181134Y0086857D02*
X0186728Y0086857D01*
X0186728Y0085859D02*
X0020228Y0085859D01*
X0020228Y0086857D02*
X0144323Y0086857D01*
X0143325Y0087856D02*
X0020228Y0087856D01*
X0020228Y0088854D02*
X0142887Y0088854D01*
X0142628Y0089853D02*
X0115411Y0089853D01*
X0116409Y0090851D02*
X0142628Y0090851D01*
X0142902Y0091850D02*
X0117408Y0091850D01*
X0118406Y0092848D02*
X0143362Y0092848D01*
X0144361Y0093847D02*
X0119405Y0093847D01*
X0116876Y0095844D02*
X0062328Y0095844D01*
X0062328Y0096842D02*
X0117875Y0096842D01*
X0118873Y0097841D02*
X0062328Y0097841D01*
X0062328Y0098839D02*
X0119872Y0098839D01*
X0120128Y0099838D02*
X0062328Y0099838D01*
X0062328Y0100836D02*
X0120128Y0100836D01*
X0120128Y0101835D02*
X0109646Y0101835D01*
X0110644Y0102833D02*
X0120128Y0102833D01*
X0120128Y0103832D02*
X0111628Y0103832D01*
X0111628Y0104830D02*
X0120128Y0104830D01*
X0120128Y0105829D02*
X0111628Y0105829D01*
X0111628Y0106827D02*
X0120128Y0106827D01*
X0120128Y0107826D02*
X0110851Y0107826D01*
X0109852Y0108824D02*
X0120128Y0108824D01*
X0120128Y0109823D02*
X0109328Y0109823D01*
X0109328Y0110821D02*
X0120128Y0110821D01*
X0120128Y0111820D02*
X0109328Y0111820D01*
X0109328Y0112818D02*
X0120128Y0112818D01*
X0120128Y0113817D02*
X0109328Y0113817D01*
X0109328Y0114815D02*
X0120128Y0114815D01*
X0120128Y0115814D02*
X0109328Y0115814D01*
X0106128Y0115814D02*
X0069328Y0115814D01*
X0069328Y0116812D02*
X0079656Y0116812D01*
X0078345Y0117811D02*
X0069399Y0117811D01*
X0069678Y0118810D02*
X0077629Y0118810D01*
X0077215Y0119808D02*
X0069678Y0119808D01*
X0069678Y0120807D02*
X0077128Y0120807D01*
X0077128Y0121805D02*
X0069650Y0121805D01*
X0068651Y0122804D02*
X0077524Y0122804D01*
X0078092Y0123802D02*
X0067653Y0123802D01*
X0062804Y0123802D02*
X0029216Y0123802D01*
X0031484Y0122804D02*
X0061806Y0122804D01*
X0060807Y0121805D02*
X0032540Y0121805D01*
X0033592Y0120807D02*
X0060778Y0120807D01*
X0060778Y0119808D02*
X0034037Y0119808D01*
X0034481Y0118810D02*
X0060778Y0118810D01*
X0060844Y0117811D02*
X0034926Y0117811D01*
X0034981Y0116812D02*
X0059845Y0116812D01*
X0059128Y0115814D02*
X0034981Y0115814D01*
X0034981Y0114815D02*
X0059128Y0114815D01*
X0059128Y0113817D02*
X0034820Y0113817D01*
X0034375Y0112818D02*
X0059128Y0112818D01*
X0059128Y0111820D02*
X0033931Y0111820D01*
X0033385Y0110821D02*
X0059128Y0110821D01*
X0059128Y0109823D02*
X0032276Y0109823D01*
X0031167Y0108824D02*
X0059128Y0108824D01*
X0059128Y0107826D02*
X0028639Y0107826D01*
X0024818Y0107826D02*
X0018228Y0107826D01*
X0018228Y0108824D02*
X0022407Y0108824D01*
X0020967Y0109823D02*
X0018228Y0109823D01*
X0018228Y0110821D02*
X0020213Y0110821D01*
X0019516Y0111820D02*
X0018228Y0111820D01*
X0018228Y0112818D02*
X0018953Y0112818D01*
X0018706Y0113817D02*
X0018228Y0113817D01*
X0018228Y0114815D02*
X0018507Y0114815D01*
X0018317Y0115814D02*
X0018228Y0115814D01*
X0018298Y0116812D02*
X0018478Y0116812D01*
X0018511Y0117811D02*
X0018608Y0117811D01*
X0018836Y0118810D02*
X0018903Y0118810D01*
X0019166Y0119808D02*
X0019343Y0119808D01*
X0019892Y0120807D02*
X0019975Y0120807D01*
X0020617Y0121805D02*
X0020794Y0121805D01*
X0021902Y0122804D02*
X0021972Y0122804D01*
X0023779Y0123802D02*
X0023853Y0123802D01*
X0020927Y0125933D02*
X0018495Y0124166D01*
X0016728Y0121734D01*
X0016728Y0125933D01*
X0020927Y0125933D01*
X0020743Y0125799D02*
X0016728Y0125799D01*
X0016728Y0124801D02*
X0019368Y0124801D01*
X0018495Y0124166D02*
X0018495Y0124166D01*
X0018495Y0124166D01*
X0018231Y0123802D02*
X0016728Y0123802D01*
X0016728Y0122804D02*
X0017505Y0122804D01*
X0016780Y0121805D02*
X0016728Y0121805D01*
X0018228Y0106827D02*
X0059128Y0106827D01*
X0059128Y0105829D02*
X0018228Y0105829D01*
X0018228Y0104830D02*
X0059128Y0104830D01*
X0059128Y0103832D02*
X0018228Y0103832D01*
X0018228Y0102833D02*
X0059128Y0102833D01*
X0059128Y0101835D02*
X0018228Y0101835D01*
X0018228Y0100836D02*
X0059128Y0100836D01*
X0059128Y0099838D02*
X0018228Y0099838D01*
X0018228Y0098839D02*
X0059128Y0098839D01*
X0059128Y0097841D02*
X0018228Y0097841D01*
X0018228Y0096842D02*
X0059128Y0096842D01*
X0059128Y0095844D02*
X0018228Y0095844D01*
X0018228Y0094845D02*
X0059128Y0094845D01*
X0059128Y0093847D02*
X0018228Y0093847D01*
X0018228Y0092848D02*
X0059128Y0092848D01*
X0059128Y0091850D02*
X0018228Y0091850D01*
X0018932Y0090851D02*
X0059128Y0090851D01*
X0059546Y0089853D02*
X0019930Y0089853D01*
X0017228Y0088312D02*
X0017228Y0073554D01*
X0016728Y0073054D01*
X0016728Y0088812D01*
X0017228Y0088312D01*
X0017228Y0087856D02*
X0016728Y0087856D01*
X0016728Y0086857D02*
X0017228Y0086857D01*
X0017228Y0085859D02*
X0016728Y0085859D01*
X0016728Y0084860D02*
X0017228Y0084860D01*
X0017228Y0083862D02*
X0016728Y0083862D01*
X0016728Y0082863D02*
X0017228Y0082863D01*
X0017228Y0081865D02*
X0016728Y0081865D01*
X0016728Y0080866D02*
X0017228Y0080866D01*
X0017228Y0079868D02*
X0016728Y0079868D01*
X0016728Y0078869D02*
X0017228Y0078869D01*
X0017228Y0077871D02*
X0016728Y0077871D01*
X0016728Y0076872D02*
X0017228Y0076872D01*
X0017228Y0075874D02*
X0016728Y0075874D01*
X0016728Y0074875D02*
X0017228Y0074875D01*
X0017228Y0073877D02*
X0016728Y0073877D01*
X0020228Y0077871D02*
X0186728Y0077871D01*
X0186728Y0078869D02*
X0020228Y0078869D01*
X0020228Y0079868D02*
X0186728Y0079868D01*
X0186728Y0080866D02*
X0020228Y0080866D01*
X0020228Y0081865D02*
X0186728Y0081865D01*
X0186728Y0082863D02*
X0020228Y0082863D01*
X0020228Y0083862D02*
X0186728Y0083862D01*
X0186728Y0084860D02*
X0020228Y0084860D01*
X0062328Y0092848D02*
X0113881Y0092848D01*
X0114879Y0093847D02*
X0062328Y0093847D01*
X0062328Y0094845D02*
X0115878Y0094845D01*
X0105811Y0101835D02*
X0069646Y0101835D01*
X0070644Y0102833D02*
X0104813Y0102833D01*
X0103828Y0103832D02*
X0071628Y0103832D01*
X0071628Y0104830D02*
X0103828Y0104830D01*
X0103828Y0105829D02*
X0071628Y0105829D01*
X0071628Y0106827D02*
X0103828Y0106827D01*
X0104606Y0107826D02*
X0070851Y0107826D01*
X0069852Y0108824D02*
X0105604Y0108824D01*
X0106128Y0109823D02*
X0069328Y0109823D01*
X0069328Y0110821D02*
X0106128Y0110821D01*
X0106128Y0111820D02*
X0069328Y0111820D01*
X0069328Y0112818D02*
X0106128Y0112818D01*
X0106128Y0113817D02*
X0069328Y0113817D01*
X0069328Y0114815D02*
X0106128Y0114815D01*
X0106128Y0116812D02*
X0103801Y0116812D01*
X0105112Y0117811D02*
X0106344Y0117811D01*
X0105828Y0118810D02*
X0107342Y0118810D01*
X0107215Y0119808D02*
X0106241Y0119808D01*
X0106328Y0120807D02*
X0107128Y0120807D01*
X0107128Y0121805D02*
X0106328Y0121805D01*
X0105933Y0122804D02*
X0107524Y0122804D01*
X0108092Y0123802D02*
X0105365Y0123802D01*
X0098092Y0123802D02*
X0095365Y0123802D01*
X0095933Y0122804D02*
X0097524Y0122804D01*
X0097128Y0121805D02*
X0096328Y0121805D01*
X0096328Y0120807D02*
X0097128Y0120807D01*
X0097215Y0119808D02*
X0096241Y0119808D01*
X0095828Y0118810D02*
X0097629Y0118810D01*
X0098345Y0117811D02*
X0095112Y0117811D01*
X0093801Y0116812D02*
X0099656Y0116812D01*
X0089656Y0116812D02*
X0083801Y0116812D01*
X0085112Y0117811D02*
X0088345Y0117811D01*
X0087629Y0118810D02*
X0085828Y0118810D01*
X0086241Y0119808D02*
X0087215Y0119808D01*
X0087128Y0120807D02*
X0086328Y0120807D01*
X0086328Y0121805D02*
X0087128Y0121805D01*
X0087524Y0122804D02*
X0085933Y0122804D01*
X0085365Y0123802D02*
X0088092Y0123802D01*
X0066128Y0114815D02*
X0062373Y0114815D01*
X0062328Y0113817D02*
X0066128Y0113817D01*
X0066128Y0112818D02*
X0062328Y0112818D01*
X0062328Y0111820D02*
X0066128Y0111820D01*
X0066128Y0110821D02*
X0062328Y0110821D01*
X0062328Y0109823D02*
X0066128Y0109823D01*
X0065604Y0108824D02*
X0062328Y0108824D01*
X0062328Y0107826D02*
X0064606Y0107826D01*
X0063828Y0106827D02*
X0062328Y0106827D01*
X0062328Y0105829D02*
X0063828Y0105829D01*
X0063828Y0104830D02*
X0062328Y0104830D01*
X0062328Y0103832D02*
X0063828Y0103832D01*
X0064813Y0102833D02*
X0062328Y0102833D01*
X0062328Y0101835D02*
X0065811Y0101835D01*
X0103939Y0070881D02*
X0142958Y0070881D01*
X0143498Y0069882D02*
X0102940Y0069882D01*
X0101942Y0068884D02*
X0144502Y0068884D01*
X0157702Y0095844D02*
X0186728Y0095844D01*
X0186728Y0096842D02*
X0158700Y0096842D01*
X0159699Y0097841D02*
X0186728Y0097841D01*
X0186728Y0098839D02*
X0160697Y0098839D01*
X0159656Y0116812D02*
X0153801Y0116812D01*
X0155112Y0117811D02*
X0158345Y0117811D01*
X0157629Y0118810D02*
X0155828Y0118810D01*
X0156241Y0119808D02*
X0157215Y0119808D01*
X0157128Y0120807D02*
X0156328Y0120807D01*
X0156328Y0121805D02*
X0157128Y0121805D01*
X0157524Y0122804D02*
X0155933Y0122804D01*
X0155365Y0123802D02*
X0158092Y0123802D01*
X0165365Y0123802D02*
X0168092Y0123802D01*
X0167524Y0122804D02*
X0165933Y0122804D01*
X0166328Y0121805D02*
X0167128Y0121805D01*
X0167128Y0120807D02*
X0166328Y0120807D01*
X0166241Y0119808D02*
X0167215Y0119808D01*
X0167629Y0118810D02*
X0165828Y0118810D01*
X0165112Y0117811D02*
X0168345Y0117811D01*
X0169656Y0116812D02*
X0163801Y0116812D01*
X0149656Y0116812D02*
X0143801Y0116812D01*
X0145112Y0117811D02*
X0148345Y0117811D01*
X0147629Y0118810D02*
X0145828Y0118810D01*
X0146241Y0119808D02*
X0147215Y0119808D01*
X0147128Y0120807D02*
X0146328Y0120807D01*
X0146328Y0121805D02*
X0147128Y0121805D01*
X0147524Y0122804D02*
X0145933Y0122804D01*
X0145365Y0123802D02*
X0148092Y0123802D01*
X0138092Y0123802D02*
X0135365Y0123802D01*
X0135933Y0122804D02*
X0137524Y0122804D01*
X0137128Y0121805D02*
X0136328Y0121805D01*
X0136328Y0120807D02*
X0137128Y0120807D01*
X0137215Y0119808D02*
X0136241Y0119808D01*
X0135828Y0118810D02*
X0137629Y0118810D01*
X0138345Y0117811D02*
X0135112Y0117811D01*
X0133801Y0116812D02*
X0139656Y0116812D01*
X0129656Y0116812D02*
X0123801Y0116812D01*
X0125112Y0117811D02*
X0128345Y0117811D01*
X0127629Y0118810D02*
X0125828Y0118810D01*
X0126241Y0119808D02*
X0127215Y0119808D01*
X0127128Y0120807D02*
X0126328Y0120807D01*
X0126328Y0121805D02*
X0127128Y0121805D01*
X0127524Y0122804D02*
X0125933Y0122804D01*
X0125365Y0123802D02*
X0128092Y0123802D01*
X0118092Y0123802D02*
X0115365Y0123802D01*
X0115933Y0122804D02*
X0117524Y0122804D01*
X0117128Y0121805D02*
X0116328Y0121805D01*
X0116328Y0120807D02*
X0117128Y0120807D01*
X0117215Y0119808D02*
X0116241Y0119808D01*
X0115828Y0118810D02*
X0117629Y0118810D01*
X0118345Y0117811D02*
X0115112Y0117811D01*
X0113801Y0116812D02*
X0119656Y0116812D01*
D16*
X0121728Y0120933D02*
X0121728Y0098433D01*
X0114228Y0090933D01*
X0060728Y0090933D01*
X0060728Y0115433D01*
X0065228Y0119933D01*
X0067728Y0117433D01*
X0067728Y0105433D01*
X0107728Y0105433D02*
X0107728Y0116933D01*
X0111728Y0120933D01*
X0149928Y0090333D02*
X0171728Y0112133D01*
X0171728Y0120933D01*
X0149928Y0072533D02*
X0103328Y0072533D01*
X0071728Y0040933D01*
M02*
