%
M48
M72
T01C0.03200
T02C0.03600
T03C0.03937
T04C0.04000
T05C0.08661
T06C0.09843
%
T01
X67728Y105433
X107728Y105433
T02
X65228Y119933
T03
X41728Y40933
X51728Y40933
X61728Y40933
X71728Y40933
X81728Y40933
X91728Y40933
X101728Y40933
X111728Y40933
X121728Y40933
X131728Y40933
X141728Y40933
X151728Y40933
X161728Y40933
X171728Y40933
X181728Y40933
X191728Y40933
X191728Y120933
X181728Y120933
X171728Y120933
X161728Y120933
X151728Y120933
X141728Y120933
X131728Y120933
X121728Y120933
X111728Y120933
X101728Y120933
X91728Y120933
X81728Y120933
T04
X149928Y90333
X149928Y72533
X175528Y72533
X175528Y90333
T05
X206728Y118433
X206728Y43183
T06
X26728Y45933
X26728Y115933
M30
