G75*
%MOIN*%
%OFA0B0*%
%FSLAX25Y25*%
%IPPOS*%
%LPD*%
%AMOC8*
5,1,8,0,0,1.08239X$1,22.5*
%
%ADD10C,0.00000*%
%ADD11C,0.00500*%
%ADD12C,0.00400*%
%ADD13C,0.00600*%
%ADD14C,0.00800*%
%ADD15C,0.00200*%
%ADD16R,0.03400X0.02400*%
D10*
X0026728Y0035933D02*
X0206728Y0035933D01*
X0202397Y0043183D02*
X0202399Y0043314D01*
X0202405Y0043446D01*
X0202415Y0043577D01*
X0202429Y0043708D01*
X0202447Y0043838D01*
X0202469Y0043967D01*
X0202494Y0044096D01*
X0202524Y0044224D01*
X0202558Y0044351D01*
X0202595Y0044478D01*
X0202636Y0044602D01*
X0202681Y0044726D01*
X0202730Y0044848D01*
X0202782Y0044969D01*
X0202838Y0045087D01*
X0202898Y0045205D01*
X0202961Y0045320D01*
X0203028Y0045433D01*
X0203098Y0045545D01*
X0203171Y0045654D01*
X0203247Y0045760D01*
X0203327Y0045865D01*
X0203410Y0045967D01*
X0203496Y0046066D01*
X0203585Y0046163D01*
X0203677Y0046257D01*
X0203772Y0046348D01*
X0203869Y0046437D01*
X0203969Y0046522D01*
X0204072Y0046604D01*
X0204177Y0046683D01*
X0204284Y0046759D01*
X0204394Y0046831D01*
X0204506Y0046900D01*
X0204620Y0046966D01*
X0204735Y0047028D01*
X0204853Y0047087D01*
X0204972Y0047142D01*
X0205093Y0047194D01*
X0205216Y0047241D01*
X0205340Y0047285D01*
X0205465Y0047326D01*
X0205591Y0047362D01*
X0205719Y0047395D01*
X0205847Y0047423D01*
X0205976Y0047448D01*
X0206106Y0047469D01*
X0206236Y0047486D01*
X0206367Y0047499D01*
X0206498Y0047508D01*
X0206629Y0047513D01*
X0206761Y0047514D01*
X0206892Y0047511D01*
X0207024Y0047504D01*
X0207155Y0047493D01*
X0207285Y0047478D01*
X0207415Y0047459D01*
X0207545Y0047436D01*
X0207673Y0047410D01*
X0207801Y0047379D01*
X0207928Y0047344D01*
X0208054Y0047306D01*
X0208178Y0047264D01*
X0208302Y0047218D01*
X0208423Y0047168D01*
X0208543Y0047115D01*
X0208662Y0047058D01*
X0208779Y0046998D01*
X0208893Y0046934D01*
X0209006Y0046866D01*
X0209117Y0046795D01*
X0209226Y0046721D01*
X0209332Y0046644D01*
X0209436Y0046563D01*
X0209537Y0046480D01*
X0209636Y0046393D01*
X0209732Y0046303D01*
X0209825Y0046210D01*
X0209916Y0046115D01*
X0210003Y0046017D01*
X0210088Y0045916D01*
X0210169Y0045813D01*
X0210247Y0045707D01*
X0210322Y0045599D01*
X0210394Y0045489D01*
X0210462Y0045377D01*
X0210527Y0045263D01*
X0210588Y0045146D01*
X0210646Y0045028D01*
X0210700Y0044908D01*
X0210751Y0044787D01*
X0210798Y0044664D01*
X0210841Y0044540D01*
X0210880Y0044415D01*
X0210916Y0044288D01*
X0210947Y0044160D01*
X0210975Y0044032D01*
X0210999Y0043903D01*
X0211019Y0043773D01*
X0211035Y0043642D01*
X0211047Y0043511D01*
X0211055Y0043380D01*
X0211059Y0043249D01*
X0211059Y0043117D01*
X0211055Y0042986D01*
X0211047Y0042855D01*
X0211035Y0042724D01*
X0211019Y0042593D01*
X0210999Y0042463D01*
X0210975Y0042334D01*
X0210947Y0042206D01*
X0210916Y0042078D01*
X0210880Y0041951D01*
X0210841Y0041826D01*
X0210798Y0041702D01*
X0210751Y0041579D01*
X0210700Y0041458D01*
X0210646Y0041338D01*
X0210588Y0041220D01*
X0210527Y0041103D01*
X0210462Y0040989D01*
X0210394Y0040877D01*
X0210322Y0040767D01*
X0210247Y0040659D01*
X0210169Y0040553D01*
X0210088Y0040450D01*
X0210003Y0040349D01*
X0209916Y0040251D01*
X0209825Y0040156D01*
X0209732Y0040063D01*
X0209636Y0039973D01*
X0209537Y0039886D01*
X0209436Y0039803D01*
X0209332Y0039722D01*
X0209226Y0039645D01*
X0209117Y0039571D01*
X0209006Y0039500D01*
X0208894Y0039432D01*
X0208779Y0039368D01*
X0208662Y0039308D01*
X0208543Y0039251D01*
X0208423Y0039198D01*
X0208302Y0039148D01*
X0208178Y0039102D01*
X0208054Y0039060D01*
X0207928Y0039022D01*
X0207801Y0038987D01*
X0207673Y0038956D01*
X0207545Y0038930D01*
X0207415Y0038907D01*
X0207285Y0038888D01*
X0207155Y0038873D01*
X0207024Y0038862D01*
X0206892Y0038855D01*
X0206761Y0038852D01*
X0206629Y0038853D01*
X0206498Y0038858D01*
X0206367Y0038867D01*
X0206236Y0038880D01*
X0206106Y0038897D01*
X0205976Y0038918D01*
X0205847Y0038943D01*
X0205719Y0038971D01*
X0205591Y0039004D01*
X0205465Y0039040D01*
X0205340Y0039081D01*
X0205216Y0039125D01*
X0205093Y0039172D01*
X0204972Y0039224D01*
X0204853Y0039279D01*
X0204735Y0039338D01*
X0204620Y0039400D01*
X0204506Y0039466D01*
X0204394Y0039535D01*
X0204284Y0039607D01*
X0204177Y0039683D01*
X0204072Y0039762D01*
X0203969Y0039844D01*
X0203869Y0039929D01*
X0203772Y0040018D01*
X0203677Y0040109D01*
X0203585Y0040203D01*
X0203496Y0040300D01*
X0203410Y0040399D01*
X0203327Y0040501D01*
X0203247Y0040606D01*
X0203171Y0040712D01*
X0203098Y0040821D01*
X0203028Y0040933D01*
X0202961Y0041046D01*
X0202898Y0041161D01*
X0202838Y0041279D01*
X0202782Y0041397D01*
X0202730Y0041518D01*
X0202681Y0041640D01*
X0202636Y0041764D01*
X0202595Y0041888D01*
X0202558Y0042015D01*
X0202524Y0042142D01*
X0202494Y0042270D01*
X0202469Y0042399D01*
X0202447Y0042528D01*
X0202429Y0042658D01*
X0202415Y0042789D01*
X0202405Y0042920D01*
X0202399Y0043052D01*
X0202397Y0043183D01*
X0206728Y0035933D02*
X0206970Y0035936D01*
X0207211Y0035945D01*
X0207452Y0035959D01*
X0207693Y0035980D01*
X0207933Y0036006D01*
X0208173Y0036038D01*
X0208412Y0036076D01*
X0208649Y0036119D01*
X0208886Y0036169D01*
X0209121Y0036224D01*
X0209355Y0036284D01*
X0209587Y0036351D01*
X0209818Y0036422D01*
X0210047Y0036500D01*
X0210274Y0036583D01*
X0210499Y0036671D01*
X0210722Y0036765D01*
X0210942Y0036864D01*
X0211160Y0036969D01*
X0211375Y0037078D01*
X0211588Y0037193D01*
X0211798Y0037313D01*
X0212004Y0037438D01*
X0212208Y0037568D01*
X0212409Y0037703D01*
X0212606Y0037843D01*
X0212800Y0037987D01*
X0212990Y0038136D01*
X0213176Y0038290D01*
X0213359Y0038448D01*
X0213538Y0038610D01*
X0213713Y0038777D01*
X0213884Y0038948D01*
X0214051Y0039123D01*
X0214213Y0039302D01*
X0214371Y0039485D01*
X0214525Y0039671D01*
X0214674Y0039861D01*
X0214818Y0040055D01*
X0214958Y0040252D01*
X0215093Y0040453D01*
X0215223Y0040657D01*
X0215348Y0040863D01*
X0215468Y0041073D01*
X0215583Y0041286D01*
X0215692Y0041501D01*
X0215797Y0041719D01*
X0215896Y0041939D01*
X0215990Y0042162D01*
X0216078Y0042387D01*
X0216161Y0042614D01*
X0216239Y0042843D01*
X0216310Y0043074D01*
X0216377Y0043306D01*
X0216437Y0043540D01*
X0216492Y0043775D01*
X0216542Y0044012D01*
X0216585Y0044249D01*
X0216623Y0044488D01*
X0216655Y0044728D01*
X0216681Y0044968D01*
X0216702Y0045209D01*
X0216716Y0045450D01*
X0216725Y0045691D01*
X0216728Y0045933D01*
X0216728Y0115933D01*
X0216725Y0116175D01*
X0216716Y0116416D01*
X0216702Y0116657D01*
X0216681Y0116898D01*
X0216655Y0117138D01*
X0216623Y0117378D01*
X0216585Y0117617D01*
X0216542Y0117854D01*
X0216492Y0118091D01*
X0216437Y0118326D01*
X0216377Y0118560D01*
X0216310Y0118792D01*
X0216239Y0119023D01*
X0216161Y0119252D01*
X0216078Y0119479D01*
X0215990Y0119704D01*
X0215896Y0119927D01*
X0215797Y0120147D01*
X0215692Y0120365D01*
X0215583Y0120580D01*
X0215468Y0120793D01*
X0215348Y0121003D01*
X0215223Y0121209D01*
X0215093Y0121413D01*
X0214958Y0121614D01*
X0214818Y0121811D01*
X0214674Y0122005D01*
X0214525Y0122195D01*
X0214371Y0122381D01*
X0214213Y0122564D01*
X0214051Y0122743D01*
X0213884Y0122918D01*
X0213713Y0123089D01*
X0213538Y0123256D01*
X0213359Y0123418D01*
X0213176Y0123576D01*
X0212990Y0123730D01*
X0212800Y0123879D01*
X0212606Y0124023D01*
X0212409Y0124163D01*
X0212208Y0124298D01*
X0212004Y0124428D01*
X0211798Y0124553D01*
X0211588Y0124673D01*
X0211375Y0124788D01*
X0211160Y0124897D01*
X0210942Y0125002D01*
X0210722Y0125101D01*
X0210499Y0125195D01*
X0210274Y0125283D01*
X0210047Y0125366D01*
X0209818Y0125444D01*
X0209587Y0125515D01*
X0209355Y0125582D01*
X0209121Y0125642D01*
X0208886Y0125697D01*
X0208649Y0125747D01*
X0208412Y0125790D01*
X0208173Y0125828D01*
X0207933Y0125860D01*
X0207693Y0125886D01*
X0207452Y0125907D01*
X0207211Y0125921D01*
X0206970Y0125930D01*
X0206728Y0125933D01*
X0026728Y0125933D01*
X0026486Y0125930D01*
X0026245Y0125921D01*
X0026004Y0125907D01*
X0025763Y0125886D01*
X0025523Y0125860D01*
X0025283Y0125828D01*
X0025044Y0125790D01*
X0024807Y0125747D01*
X0024570Y0125697D01*
X0024335Y0125642D01*
X0024101Y0125582D01*
X0023869Y0125515D01*
X0023638Y0125444D01*
X0023409Y0125366D01*
X0023182Y0125283D01*
X0022957Y0125195D01*
X0022734Y0125101D01*
X0022514Y0125002D01*
X0022296Y0124897D01*
X0022081Y0124788D01*
X0021868Y0124673D01*
X0021658Y0124553D01*
X0021452Y0124428D01*
X0021248Y0124298D01*
X0021047Y0124163D01*
X0020850Y0124023D01*
X0020656Y0123879D01*
X0020466Y0123730D01*
X0020280Y0123576D01*
X0020097Y0123418D01*
X0019918Y0123256D01*
X0019743Y0123089D01*
X0019572Y0122918D01*
X0019405Y0122743D01*
X0019243Y0122564D01*
X0019085Y0122381D01*
X0018931Y0122195D01*
X0018782Y0122005D01*
X0018638Y0121811D01*
X0018498Y0121614D01*
X0018363Y0121413D01*
X0018233Y0121209D01*
X0018108Y0121003D01*
X0017988Y0120793D01*
X0017873Y0120580D01*
X0017764Y0120365D01*
X0017659Y0120147D01*
X0017560Y0119927D01*
X0017466Y0119704D01*
X0017378Y0119479D01*
X0017295Y0119252D01*
X0017217Y0119023D01*
X0017146Y0118792D01*
X0017079Y0118560D01*
X0017019Y0118326D01*
X0016964Y0118091D01*
X0016914Y0117854D01*
X0016871Y0117617D01*
X0016833Y0117378D01*
X0016801Y0117138D01*
X0016775Y0116898D01*
X0016754Y0116657D01*
X0016740Y0116416D01*
X0016731Y0116175D01*
X0016728Y0115933D01*
X0016728Y0090933D01*
X0018728Y0088933D01*
X0018728Y0072933D01*
X0016728Y0070933D01*
X0016728Y0045933D01*
X0016731Y0045691D01*
X0016740Y0045450D01*
X0016754Y0045209D01*
X0016775Y0044968D01*
X0016801Y0044728D01*
X0016833Y0044488D01*
X0016871Y0044249D01*
X0016914Y0044012D01*
X0016964Y0043775D01*
X0017019Y0043540D01*
X0017079Y0043306D01*
X0017146Y0043074D01*
X0017217Y0042843D01*
X0017295Y0042614D01*
X0017378Y0042387D01*
X0017466Y0042162D01*
X0017560Y0041939D01*
X0017659Y0041719D01*
X0017764Y0041501D01*
X0017873Y0041286D01*
X0017988Y0041073D01*
X0018108Y0040863D01*
X0018233Y0040657D01*
X0018363Y0040453D01*
X0018498Y0040252D01*
X0018638Y0040055D01*
X0018782Y0039861D01*
X0018931Y0039671D01*
X0019085Y0039485D01*
X0019243Y0039302D01*
X0019405Y0039123D01*
X0019572Y0038948D01*
X0019743Y0038777D01*
X0019918Y0038610D01*
X0020097Y0038448D01*
X0020280Y0038290D01*
X0020466Y0038136D01*
X0020656Y0037987D01*
X0020850Y0037843D01*
X0021047Y0037703D01*
X0021248Y0037568D01*
X0021452Y0037438D01*
X0021658Y0037313D01*
X0021868Y0037193D01*
X0022081Y0037078D01*
X0022296Y0036969D01*
X0022514Y0036864D01*
X0022734Y0036765D01*
X0022957Y0036671D01*
X0023182Y0036583D01*
X0023409Y0036500D01*
X0023638Y0036422D01*
X0023869Y0036351D01*
X0024101Y0036284D01*
X0024335Y0036224D01*
X0024570Y0036169D01*
X0024807Y0036119D01*
X0025044Y0036076D01*
X0025283Y0036038D01*
X0025523Y0036006D01*
X0025763Y0035980D01*
X0026004Y0035959D01*
X0026245Y0035945D01*
X0026486Y0035936D01*
X0026728Y0035933D01*
X0202397Y0118433D02*
X0202399Y0118564D01*
X0202405Y0118696D01*
X0202415Y0118827D01*
X0202429Y0118958D01*
X0202447Y0119088D01*
X0202469Y0119217D01*
X0202494Y0119346D01*
X0202524Y0119474D01*
X0202558Y0119601D01*
X0202595Y0119728D01*
X0202636Y0119852D01*
X0202681Y0119976D01*
X0202730Y0120098D01*
X0202782Y0120219D01*
X0202838Y0120337D01*
X0202898Y0120455D01*
X0202961Y0120570D01*
X0203028Y0120683D01*
X0203098Y0120795D01*
X0203171Y0120904D01*
X0203247Y0121010D01*
X0203327Y0121115D01*
X0203410Y0121217D01*
X0203496Y0121316D01*
X0203585Y0121413D01*
X0203677Y0121507D01*
X0203772Y0121598D01*
X0203869Y0121687D01*
X0203969Y0121772D01*
X0204072Y0121854D01*
X0204177Y0121933D01*
X0204284Y0122009D01*
X0204394Y0122081D01*
X0204506Y0122150D01*
X0204620Y0122216D01*
X0204735Y0122278D01*
X0204853Y0122337D01*
X0204972Y0122392D01*
X0205093Y0122444D01*
X0205216Y0122491D01*
X0205340Y0122535D01*
X0205465Y0122576D01*
X0205591Y0122612D01*
X0205719Y0122645D01*
X0205847Y0122673D01*
X0205976Y0122698D01*
X0206106Y0122719D01*
X0206236Y0122736D01*
X0206367Y0122749D01*
X0206498Y0122758D01*
X0206629Y0122763D01*
X0206761Y0122764D01*
X0206892Y0122761D01*
X0207024Y0122754D01*
X0207155Y0122743D01*
X0207285Y0122728D01*
X0207415Y0122709D01*
X0207545Y0122686D01*
X0207673Y0122660D01*
X0207801Y0122629D01*
X0207928Y0122594D01*
X0208054Y0122556D01*
X0208178Y0122514D01*
X0208302Y0122468D01*
X0208423Y0122418D01*
X0208543Y0122365D01*
X0208662Y0122308D01*
X0208779Y0122248D01*
X0208893Y0122184D01*
X0209006Y0122116D01*
X0209117Y0122045D01*
X0209226Y0121971D01*
X0209332Y0121894D01*
X0209436Y0121813D01*
X0209537Y0121730D01*
X0209636Y0121643D01*
X0209732Y0121553D01*
X0209825Y0121460D01*
X0209916Y0121365D01*
X0210003Y0121267D01*
X0210088Y0121166D01*
X0210169Y0121063D01*
X0210247Y0120957D01*
X0210322Y0120849D01*
X0210394Y0120739D01*
X0210462Y0120627D01*
X0210527Y0120513D01*
X0210588Y0120396D01*
X0210646Y0120278D01*
X0210700Y0120158D01*
X0210751Y0120037D01*
X0210798Y0119914D01*
X0210841Y0119790D01*
X0210880Y0119665D01*
X0210916Y0119538D01*
X0210947Y0119410D01*
X0210975Y0119282D01*
X0210999Y0119153D01*
X0211019Y0119023D01*
X0211035Y0118892D01*
X0211047Y0118761D01*
X0211055Y0118630D01*
X0211059Y0118499D01*
X0211059Y0118367D01*
X0211055Y0118236D01*
X0211047Y0118105D01*
X0211035Y0117974D01*
X0211019Y0117843D01*
X0210999Y0117713D01*
X0210975Y0117584D01*
X0210947Y0117456D01*
X0210916Y0117328D01*
X0210880Y0117201D01*
X0210841Y0117076D01*
X0210798Y0116952D01*
X0210751Y0116829D01*
X0210700Y0116708D01*
X0210646Y0116588D01*
X0210588Y0116470D01*
X0210527Y0116353D01*
X0210462Y0116239D01*
X0210394Y0116127D01*
X0210322Y0116017D01*
X0210247Y0115909D01*
X0210169Y0115803D01*
X0210088Y0115700D01*
X0210003Y0115599D01*
X0209916Y0115501D01*
X0209825Y0115406D01*
X0209732Y0115313D01*
X0209636Y0115223D01*
X0209537Y0115136D01*
X0209436Y0115053D01*
X0209332Y0114972D01*
X0209226Y0114895D01*
X0209117Y0114821D01*
X0209006Y0114750D01*
X0208894Y0114682D01*
X0208779Y0114618D01*
X0208662Y0114558D01*
X0208543Y0114501D01*
X0208423Y0114448D01*
X0208302Y0114398D01*
X0208178Y0114352D01*
X0208054Y0114310D01*
X0207928Y0114272D01*
X0207801Y0114237D01*
X0207673Y0114206D01*
X0207545Y0114180D01*
X0207415Y0114157D01*
X0207285Y0114138D01*
X0207155Y0114123D01*
X0207024Y0114112D01*
X0206892Y0114105D01*
X0206761Y0114102D01*
X0206629Y0114103D01*
X0206498Y0114108D01*
X0206367Y0114117D01*
X0206236Y0114130D01*
X0206106Y0114147D01*
X0205976Y0114168D01*
X0205847Y0114193D01*
X0205719Y0114221D01*
X0205591Y0114254D01*
X0205465Y0114290D01*
X0205340Y0114331D01*
X0205216Y0114375D01*
X0205093Y0114422D01*
X0204972Y0114474D01*
X0204853Y0114529D01*
X0204735Y0114588D01*
X0204620Y0114650D01*
X0204506Y0114716D01*
X0204394Y0114785D01*
X0204284Y0114857D01*
X0204177Y0114933D01*
X0204072Y0115012D01*
X0203969Y0115094D01*
X0203869Y0115179D01*
X0203772Y0115268D01*
X0203677Y0115359D01*
X0203585Y0115453D01*
X0203496Y0115550D01*
X0203410Y0115649D01*
X0203327Y0115751D01*
X0203247Y0115856D01*
X0203171Y0115962D01*
X0203098Y0116071D01*
X0203028Y0116183D01*
X0202961Y0116296D01*
X0202898Y0116411D01*
X0202838Y0116529D01*
X0202782Y0116647D01*
X0202730Y0116768D01*
X0202681Y0116890D01*
X0202636Y0117014D01*
X0202595Y0117138D01*
X0202558Y0117265D01*
X0202524Y0117392D01*
X0202494Y0117520D01*
X0202469Y0117649D01*
X0202447Y0117778D01*
X0202429Y0117908D01*
X0202415Y0118039D01*
X0202405Y0118170D01*
X0202399Y0118302D01*
X0202397Y0118433D01*
D11*
X0158585Y0096183D02*
X0155582Y0096183D01*
X0157084Y0096183D02*
X0157084Y0100687D01*
X0155582Y0099186D01*
X0153981Y0099936D02*
X0153230Y0100687D01*
X0151729Y0100687D01*
X0150978Y0099936D01*
X0150978Y0099186D01*
X0151729Y0098435D01*
X0153230Y0098435D01*
X0153981Y0097684D01*
X0153981Y0096934D01*
X0153230Y0096183D01*
X0151729Y0096183D01*
X0150978Y0096934D01*
X0107655Y0113767D02*
X0107071Y0113183D01*
X0105320Y0113183D01*
X0105320Y0116686D01*
X0107071Y0116686D01*
X0107655Y0116102D01*
X0107655Y0115518D01*
X0107071Y0114935D01*
X0105320Y0114935D01*
X0103972Y0114351D02*
X0103972Y0113767D01*
X0103388Y0113183D01*
X0102221Y0113183D01*
X0101637Y0113767D01*
X0102221Y0114935D02*
X0101637Y0115518D01*
X0101637Y0116102D01*
X0102221Y0116686D01*
X0103388Y0116686D01*
X0103972Y0116102D01*
X0103388Y0114935D02*
X0103972Y0114351D01*
X0103388Y0114935D02*
X0102221Y0114935D01*
X0100289Y0113767D02*
X0100289Y0116686D01*
X0097954Y0116686D02*
X0097954Y0113767D01*
X0098537Y0113183D01*
X0099705Y0113183D01*
X0100289Y0113767D01*
X0094814Y0113683D02*
X0094814Y0117186D01*
X0092478Y0117186D02*
X0094814Y0113683D01*
X0092478Y0113683D02*
X0092478Y0117186D01*
X0091131Y0117186D02*
X0088795Y0117186D01*
X0088795Y0113683D01*
X0091131Y0113683D01*
X0089963Y0115435D02*
X0088795Y0115435D01*
X0087155Y0117186D02*
X0084820Y0117186D01*
X0085988Y0117186D02*
X0085988Y0113683D01*
X0083472Y0113683D02*
X0083472Y0116018D01*
X0082304Y0117186D01*
X0081137Y0116018D01*
X0081137Y0113683D01*
X0080582Y0114686D02*
X0082084Y0116187D01*
X0082084Y0111683D01*
X0083585Y0111683D02*
X0080582Y0111683D01*
X0078981Y0111683D02*
X0077480Y0113184D01*
X0077454Y0113683D02*
X0079205Y0113683D01*
X0079789Y0114267D01*
X0079789Y0114851D01*
X0079205Y0115435D01*
X0077454Y0115435D01*
X0078230Y0116187D02*
X0078981Y0115436D01*
X0078981Y0113935D01*
X0078230Y0113184D01*
X0075978Y0113184D01*
X0075978Y0111683D02*
X0075978Y0116187D01*
X0078230Y0116187D01*
X0079205Y0115435D02*
X0079789Y0116018D01*
X0079789Y0116602D01*
X0079205Y0117186D01*
X0077454Y0117186D01*
X0077454Y0113683D01*
X0081137Y0115435D02*
X0083472Y0115435D01*
X0079293Y0124183D02*
X0076290Y0124183D01*
X0077791Y0124183D02*
X0077791Y0128687D01*
X0076290Y0127186D01*
X0074689Y0127936D02*
X0073938Y0128687D01*
X0071686Y0128687D01*
X0071686Y0124183D01*
X0073938Y0124183D01*
X0074689Y0124934D01*
X0074689Y0127936D01*
X0070085Y0127186D02*
X0070085Y0124183D01*
X0070085Y0126435D02*
X0067082Y0126435D01*
X0067082Y0127186D02*
X0067082Y0124183D01*
X0065481Y0126435D02*
X0064730Y0125684D01*
X0062478Y0125684D01*
X0062478Y0124183D02*
X0062478Y0128687D01*
X0064730Y0128687D01*
X0065481Y0127936D01*
X0065481Y0126435D01*
X0067082Y0127186D02*
X0068584Y0128687D01*
X0070085Y0127186D01*
X0107071Y0114935D02*
X0107655Y0114351D01*
X0107655Y0113767D01*
X0088071Y0048686D02*
X0086904Y0048686D01*
X0086320Y0048102D01*
X0086320Y0045767D01*
X0086904Y0045183D01*
X0088071Y0045183D01*
X0088655Y0045767D01*
X0084972Y0045767D02*
X0084972Y0048102D01*
X0084388Y0048686D01*
X0082637Y0048686D01*
X0082637Y0045183D01*
X0084388Y0045183D01*
X0084972Y0045767D01*
X0081289Y0045183D02*
X0081289Y0047518D01*
X0080121Y0048686D01*
X0078954Y0047518D01*
X0078954Y0045183D01*
X0078954Y0046935D02*
X0081289Y0046935D01*
X0077155Y0045767D02*
X0077155Y0048102D01*
X0076571Y0048686D01*
X0074820Y0048686D01*
X0074820Y0045183D01*
X0076571Y0045183D01*
X0077155Y0045767D01*
X0073472Y0045183D02*
X0073472Y0048686D01*
X0071137Y0048686D02*
X0073472Y0045183D01*
X0071137Y0045183D02*
X0071137Y0048686D01*
X0069789Y0048102D02*
X0069205Y0048686D01*
X0068037Y0048686D01*
X0067454Y0048102D01*
X0067454Y0045767D01*
X0068037Y0045183D01*
X0069205Y0045183D01*
X0069789Y0045767D01*
X0069789Y0046935D01*
X0068621Y0046935D01*
X0064314Y0048102D02*
X0063730Y0048686D01*
X0062562Y0048686D01*
X0061978Y0048102D01*
X0061978Y0045767D01*
X0062562Y0045183D01*
X0063730Y0045183D01*
X0064314Y0045767D01*
X0060631Y0045183D02*
X0060631Y0048686D01*
X0058295Y0048686D02*
X0060631Y0045183D01*
X0058295Y0045183D02*
X0058295Y0048686D01*
X0054814Y0048686D02*
X0054814Y0046351D01*
X0053646Y0045183D01*
X0052478Y0046351D01*
X0052478Y0048686D01*
X0051131Y0048102D02*
X0051131Y0047518D01*
X0050547Y0046935D01*
X0051131Y0046351D01*
X0051131Y0045767D01*
X0050547Y0045183D01*
X0049379Y0045183D01*
X0048795Y0045767D01*
X0049963Y0046935D02*
X0050547Y0046935D01*
X0051131Y0048102D02*
X0050547Y0048686D01*
X0049379Y0048686D01*
X0048795Y0048102D01*
X0048155Y0048186D02*
X0045820Y0048186D01*
X0046988Y0048186D02*
X0046988Y0044683D01*
X0044472Y0045267D02*
X0043888Y0044683D01*
X0042721Y0044683D01*
X0042137Y0045267D01*
X0042721Y0046435D02*
X0043888Y0046435D01*
X0044472Y0045851D01*
X0044472Y0045267D01*
X0042721Y0046435D02*
X0042137Y0047018D01*
X0042137Y0047602D01*
X0042721Y0048186D01*
X0043888Y0048186D01*
X0044472Y0047602D01*
X0040789Y0047602D02*
X0040789Y0046435D01*
X0040205Y0045851D01*
X0038454Y0045851D01*
X0039621Y0045851D02*
X0040789Y0044683D01*
X0038454Y0044683D02*
X0038454Y0048186D01*
X0040205Y0048186D01*
X0040789Y0047602D01*
X0088071Y0048686D02*
X0088655Y0048102D01*
D12*
X0091326Y0048600D02*
X0091326Y0049534D01*
X0091793Y0050001D01*
X0091326Y0048600D02*
X0091793Y0048133D01*
X0093661Y0048133D01*
X0094128Y0048600D01*
X0094128Y0049534D01*
X0093661Y0050001D01*
X0094128Y0047055D02*
X0091326Y0047055D01*
X0091326Y0045187D02*
X0094128Y0047055D01*
X0094128Y0045187D02*
X0091326Y0045187D01*
X0100326Y0045187D02*
X0103128Y0047055D01*
X0100326Y0047055D01*
X0100793Y0048133D02*
X0102661Y0048133D01*
X0103128Y0048600D01*
X0103128Y0049534D01*
X0102661Y0050001D01*
X0100793Y0050001D02*
X0100326Y0049534D01*
X0100326Y0048600D01*
X0100793Y0048133D01*
X0100326Y0045187D02*
X0103128Y0045187D01*
X0108982Y0045033D02*
X0108982Y0047835D01*
X0110850Y0045033D01*
X0110850Y0047835D01*
X0111928Y0047368D02*
X0111928Y0045500D01*
X0112395Y0045033D01*
X0113330Y0045033D01*
X0113797Y0045500D01*
X0113797Y0047368D02*
X0113330Y0047835D01*
X0112395Y0047835D01*
X0111928Y0047368D01*
X0115982Y0047835D02*
X0115982Y0045033D01*
X0117850Y0045033D02*
X0117850Y0047835D01*
X0118928Y0047368D02*
X0119395Y0047835D01*
X0120330Y0047835D01*
X0120797Y0047368D01*
X0120797Y0045500D02*
X0120330Y0045033D01*
X0119395Y0045033D01*
X0118928Y0045500D01*
X0118928Y0047368D01*
X0117850Y0045033D02*
X0115982Y0047835D01*
X0124982Y0046835D02*
X0124982Y0044033D01*
X0126850Y0044033D02*
X0126850Y0046835D01*
X0127928Y0046368D02*
X0127928Y0044500D01*
X0128395Y0044033D01*
X0129330Y0044033D01*
X0129797Y0044500D01*
X0129797Y0046368D02*
X0129330Y0046835D01*
X0128395Y0046835D01*
X0127928Y0046368D01*
X0126850Y0044033D02*
X0124982Y0046835D01*
X0142509Y0046368D02*
X0142509Y0045901D01*
X0142976Y0045434D01*
X0143910Y0045434D01*
X0144377Y0044967D01*
X0144377Y0044500D01*
X0143910Y0044033D01*
X0142976Y0044033D01*
X0142509Y0044500D01*
X0142509Y0046368D02*
X0142976Y0046835D01*
X0143910Y0046835D01*
X0144377Y0046368D01*
X0145455Y0046368D02*
X0145455Y0044500D01*
X0145922Y0044033D01*
X0146856Y0044033D01*
X0147323Y0044500D01*
X0148402Y0044033D02*
X0148402Y0046835D01*
X0147323Y0046368D02*
X0146856Y0046835D01*
X0145922Y0046835D01*
X0145455Y0046368D01*
X0148402Y0044967D02*
X0150270Y0046835D01*
X0148869Y0045434D02*
X0150270Y0044033D01*
X0154482Y0044033D02*
X0154482Y0046835D01*
X0155416Y0045901D01*
X0156350Y0046835D01*
X0156350Y0044033D01*
X0157428Y0044500D02*
X0157895Y0044033D01*
X0158830Y0044033D01*
X0159297Y0044500D01*
X0159297Y0046368D01*
X0158830Y0046835D01*
X0157895Y0046835D01*
X0157428Y0046368D01*
X0157428Y0044500D01*
X0164973Y0044033D02*
X0164973Y0046835D01*
X0165907Y0045901D01*
X0166841Y0046835D01*
X0166841Y0044033D01*
X0167919Y0044033D02*
X0168854Y0044033D01*
X0168386Y0044033D02*
X0168386Y0046835D01*
X0167919Y0046835D02*
X0168854Y0046835D01*
X0174482Y0046835D02*
X0174482Y0044033D01*
X0174482Y0044967D02*
X0175883Y0044967D01*
X0176350Y0045434D01*
X0176350Y0046368D01*
X0175883Y0046835D01*
X0174482Y0046835D01*
X0175416Y0044967D02*
X0176350Y0044033D01*
X0177428Y0044033D02*
X0179297Y0046835D01*
X0177428Y0046835D02*
X0179297Y0044033D01*
X0183982Y0046835D02*
X0185850Y0046835D01*
X0184916Y0046835D02*
X0184916Y0044033D01*
X0186928Y0044033D02*
X0188797Y0046835D01*
X0186928Y0046835D02*
X0188797Y0044033D01*
X0196076Y0044284D02*
X0196076Y0042883D01*
X0198878Y0042883D01*
X0197944Y0042883D02*
X0197944Y0044284D01*
X0197477Y0044751D01*
X0196543Y0044751D01*
X0196076Y0044284D01*
X0196076Y0045830D02*
X0196076Y0047231D01*
X0196543Y0047698D01*
X0198411Y0047698D01*
X0198878Y0047231D01*
X0198878Y0045830D01*
X0196076Y0045830D01*
X0196076Y0041805D02*
X0198878Y0041805D01*
X0197477Y0041805D02*
X0197477Y0039937D01*
X0198878Y0039937D02*
X0196076Y0039937D01*
X0196543Y0038858D02*
X0196076Y0038391D01*
X0196076Y0037457D01*
X0196543Y0036990D01*
X0198411Y0036990D01*
X0198878Y0037457D01*
X0198878Y0038391D01*
X0198411Y0038858D01*
X0198356Y0115033D02*
X0198823Y0115500D01*
X0198823Y0117368D01*
X0198356Y0117835D01*
X0196955Y0117835D01*
X0196955Y0115033D01*
X0198356Y0115033D01*
X0199902Y0115033D02*
X0199902Y0116901D01*
X0200836Y0117835D01*
X0201770Y0116901D01*
X0201770Y0115033D01*
X0201770Y0116434D02*
X0199902Y0116434D01*
X0195877Y0115967D02*
X0195877Y0115500D01*
X0195410Y0115033D01*
X0194476Y0115033D01*
X0194009Y0115500D01*
X0194476Y0116434D02*
X0195410Y0116434D01*
X0195877Y0115967D01*
X0195877Y0117368D02*
X0195410Y0117835D01*
X0194476Y0117835D01*
X0194009Y0117368D01*
X0194009Y0116901D01*
X0194476Y0116434D01*
X0191270Y0115033D02*
X0189402Y0115033D01*
X0189402Y0117835D01*
X0188323Y0117368D02*
X0187856Y0117835D01*
X0186922Y0117835D01*
X0186455Y0117368D01*
X0186455Y0115500D01*
X0186922Y0115033D01*
X0187856Y0115033D01*
X0188323Y0115500D01*
X0185377Y0115500D02*
X0184910Y0115033D01*
X0183976Y0115033D01*
X0183509Y0115500D01*
X0183976Y0116434D02*
X0183509Y0116901D01*
X0183509Y0117368D01*
X0183976Y0117835D01*
X0184910Y0117835D01*
X0185377Y0117368D01*
X0184910Y0116434D02*
X0185377Y0115967D01*
X0185377Y0115500D01*
X0184910Y0116434D02*
X0183976Y0116434D01*
X0186172Y0121783D02*
X0185705Y0122250D01*
X0186172Y0121783D02*
X0187106Y0121783D01*
X0187573Y0122250D01*
X0187573Y0123184D01*
X0187106Y0123651D01*
X0186639Y0123651D01*
X0185705Y0123184D01*
X0185705Y0124585D01*
X0187573Y0124585D01*
X0195455Y0123184D02*
X0197323Y0123184D01*
X0196856Y0121783D02*
X0196856Y0124585D01*
X0195455Y0123184D01*
X0176323Y0117868D02*
X0175856Y0118335D01*
X0174922Y0118335D01*
X0174455Y0117868D01*
X0176323Y0117868D02*
X0176323Y0117401D01*
X0174455Y0115533D01*
X0176323Y0115533D01*
X0168797Y0116000D02*
X0168797Y0116467D01*
X0168330Y0116934D01*
X0166928Y0116934D01*
X0166928Y0116000D01*
X0167395Y0115533D01*
X0168330Y0115533D01*
X0168797Y0116000D01*
X0167862Y0117868D02*
X0166928Y0116934D01*
X0167862Y0117868D02*
X0168797Y0118335D01*
X0164916Y0118335D02*
X0164916Y0115533D01*
X0163982Y0115533D02*
X0165850Y0115533D01*
X0163982Y0117401D02*
X0164916Y0118335D01*
X0157323Y0117868D02*
X0157323Y0116000D01*
X0156856Y0115533D01*
X0155922Y0115533D01*
X0155455Y0116000D01*
X0157323Y0117868D01*
X0156856Y0118335D01*
X0155922Y0118335D01*
X0155455Y0117868D01*
X0155455Y0116000D01*
X0148797Y0116000D02*
X0148330Y0115533D01*
X0147395Y0115533D01*
X0146928Y0116000D01*
X0146928Y0116934D02*
X0147862Y0117401D01*
X0148330Y0117401D01*
X0148797Y0116934D01*
X0148797Y0116000D01*
X0146928Y0116934D02*
X0146928Y0118335D01*
X0148797Y0118335D01*
X0144916Y0118335D02*
X0144916Y0115533D01*
X0143982Y0115533D02*
X0145850Y0115533D01*
X0143982Y0117401D02*
X0144916Y0118335D01*
X0138797Y0117868D02*
X0138797Y0117401D01*
X0138330Y0116934D01*
X0138797Y0116467D01*
X0138797Y0116000D01*
X0138330Y0115533D01*
X0137395Y0115533D01*
X0136928Y0116000D01*
X0135850Y0115533D02*
X0133982Y0115533D01*
X0134916Y0115533D02*
X0134916Y0118335D01*
X0133982Y0117401D01*
X0136928Y0117868D02*
X0137395Y0118335D01*
X0138330Y0118335D01*
X0138797Y0117868D01*
X0138330Y0116934D02*
X0137862Y0116934D01*
X0128797Y0117401D02*
X0128797Y0117868D01*
X0128330Y0118335D01*
X0127395Y0118335D01*
X0126928Y0117868D01*
X0128797Y0117401D02*
X0126928Y0115533D01*
X0128797Y0115533D01*
X0125850Y0115533D02*
X0123982Y0115533D01*
X0124916Y0115533D02*
X0124916Y0118335D01*
X0123982Y0117401D01*
X0118797Y0116934D02*
X0116928Y0116934D01*
X0118330Y0118335D01*
X0118330Y0115533D01*
X0115850Y0115533D02*
X0113982Y0115533D01*
X0114916Y0115533D02*
X0114916Y0118335D01*
X0113982Y0117401D01*
D13*
X0100228Y0108933D02*
X0100228Y0101933D01*
X0100226Y0101873D01*
X0100221Y0101812D01*
X0100212Y0101753D01*
X0100199Y0101694D01*
X0100183Y0101635D01*
X0100163Y0101578D01*
X0100140Y0101523D01*
X0100113Y0101468D01*
X0100084Y0101416D01*
X0100051Y0101365D01*
X0100015Y0101316D01*
X0099977Y0101270D01*
X0099935Y0101226D01*
X0099891Y0101184D01*
X0099845Y0101146D01*
X0099796Y0101110D01*
X0099745Y0101077D01*
X0099693Y0101048D01*
X0099638Y0101021D01*
X0099583Y0100998D01*
X0099526Y0100978D01*
X0099467Y0100962D01*
X0099408Y0100949D01*
X0099349Y0100940D01*
X0099288Y0100935D01*
X0099228Y0100933D01*
X0097728Y0100933D01*
X0097228Y0101433D01*
X0078228Y0101433D01*
X0077728Y0100933D01*
X0076228Y0100933D01*
X0076168Y0100935D01*
X0076107Y0100940D01*
X0076048Y0100949D01*
X0075989Y0100962D01*
X0075930Y0100978D01*
X0075873Y0100998D01*
X0075818Y0101021D01*
X0075763Y0101048D01*
X0075711Y0101077D01*
X0075660Y0101110D01*
X0075611Y0101146D01*
X0075565Y0101184D01*
X0075521Y0101226D01*
X0075479Y0101270D01*
X0075441Y0101316D01*
X0075405Y0101365D01*
X0075372Y0101416D01*
X0075343Y0101468D01*
X0075316Y0101523D01*
X0075293Y0101578D01*
X0075273Y0101635D01*
X0075257Y0101694D01*
X0075244Y0101753D01*
X0075235Y0101812D01*
X0075230Y0101873D01*
X0075228Y0101933D01*
X0075228Y0108933D01*
X0075230Y0108993D01*
X0075235Y0109054D01*
X0075244Y0109113D01*
X0075257Y0109172D01*
X0075273Y0109231D01*
X0075293Y0109288D01*
X0075316Y0109343D01*
X0075343Y0109398D01*
X0075372Y0109450D01*
X0075405Y0109501D01*
X0075441Y0109550D01*
X0075479Y0109596D01*
X0075521Y0109640D01*
X0075565Y0109682D01*
X0075611Y0109720D01*
X0075660Y0109756D01*
X0075711Y0109789D01*
X0075763Y0109818D01*
X0075818Y0109845D01*
X0075873Y0109868D01*
X0075930Y0109888D01*
X0075989Y0109904D01*
X0076048Y0109917D01*
X0076107Y0109926D01*
X0076168Y0109931D01*
X0076228Y0109933D01*
X0077728Y0109933D01*
X0078228Y0109433D01*
X0097228Y0109433D01*
X0097728Y0109933D01*
X0099228Y0109933D01*
X0099288Y0109931D01*
X0099349Y0109926D01*
X0099408Y0109917D01*
X0099467Y0109904D01*
X0099526Y0109888D01*
X0099583Y0109868D01*
X0099638Y0109845D01*
X0099693Y0109818D01*
X0099745Y0109789D01*
X0099796Y0109756D01*
X0099845Y0109720D01*
X0099891Y0109682D01*
X0099935Y0109640D01*
X0099977Y0109596D01*
X0100015Y0109550D01*
X0100051Y0109501D01*
X0100084Y0109450D01*
X0100113Y0109398D01*
X0100140Y0109343D01*
X0100163Y0109288D01*
X0100183Y0109231D01*
X0100199Y0109172D01*
X0100212Y0109113D01*
X0100221Y0109054D01*
X0100226Y0108993D01*
X0100228Y0108933D01*
X0083922Y0128433D02*
X0083055Y0128433D01*
X0082621Y0128867D01*
X0083489Y0129734D02*
X0083922Y0129734D01*
X0084356Y0129300D01*
X0084356Y0128867D01*
X0083922Y0128433D01*
X0083922Y0129734D02*
X0084356Y0130168D01*
X0084356Y0130602D01*
X0083922Y0131035D01*
X0083055Y0131035D01*
X0082621Y0130602D01*
X0081410Y0130602D02*
X0080976Y0131035D01*
X0079675Y0131035D01*
X0079675Y0128433D01*
X0079675Y0129300D02*
X0080976Y0129300D01*
X0081410Y0129734D01*
X0081410Y0130602D01*
X0078463Y0131035D02*
X0077596Y0131035D01*
X0078029Y0131035D02*
X0078029Y0128867D01*
X0077596Y0128433D01*
X0077162Y0128433D01*
X0076728Y0128867D01*
X0068228Y0122933D02*
X0067228Y0122933D01*
X0068228Y0122933D02*
X0068228Y0121933D01*
X0063228Y0122933D02*
X0062228Y0122933D01*
X0062228Y0121933D01*
X0062228Y0117933D02*
X0062228Y0116933D01*
X0063228Y0116933D01*
X0067228Y0116933D02*
X0068228Y0116933D01*
X0068228Y0117933D01*
X0038338Y0092706D02*
X0038338Y0091639D01*
X0038338Y0089503D02*
X0037271Y0089503D01*
X0038338Y0089503D02*
X0038338Y0085233D01*
X0037271Y0085233D02*
X0039406Y0085233D01*
X0041568Y0085233D02*
X0041568Y0089503D01*
X0044771Y0089503D01*
X0045838Y0088436D01*
X0045838Y0085233D01*
X0048013Y0085233D02*
X0048013Y0091639D01*
X0051216Y0089503D02*
X0048013Y0087368D01*
X0051216Y0085233D01*
X0046932Y0080071D02*
X0046932Y0075801D01*
X0048000Y0074733D01*
X0050162Y0075801D02*
X0051229Y0076868D01*
X0054432Y0076868D01*
X0054432Y0077936D02*
X0053365Y0079003D01*
X0051229Y0079003D01*
X0054432Y0077936D02*
X0054432Y0074733D01*
X0051229Y0074733D01*
X0050162Y0075801D01*
X0048000Y0079003D02*
X0045865Y0079003D01*
X0043690Y0079003D02*
X0040487Y0079003D01*
X0039419Y0077936D01*
X0040487Y0076868D01*
X0042622Y0076868D01*
X0043690Y0075801D01*
X0042622Y0074733D01*
X0039419Y0074733D01*
X0037244Y0074733D02*
X0037244Y0079003D01*
X0037244Y0074733D02*
X0034041Y0074733D01*
X0032974Y0075801D01*
X0032974Y0079003D01*
X0030799Y0077936D02*
X0028663Y0077936D01*
X0030799Y0077936D02*
X0030799Y0075801D01*
X0029731Y0074733D01*
X0027596Y0074733D01*
X0026528Y0075801D01*
X0026528Y0080071D01*
X0027596Y0081139D01*
X0029731Y0081139D01*
X0030799Y0080071D01*
X0029731Y0085233D02*
X0026528Y0085233D01*
X0026528Y0091639D01*
X0029731Y0091639D01*
X0030799Y0090571D01*
X0030799Y0089503D01*
X0029731Y0088436D01*
X0026528Y0088436D01*
X0029731Y0088436D02*
X0030799Y0087368D01*
X0030799Y0086301D01*
X0029731Y0085233D01*
X0032974Y0085233D02*
X0035109Y0085233D01*
X0034041Y0085233D02*
X0034041Y0091639D01*
X0032974Y0091639D01*
X0056607Y0079003D02*
X0058742Y0074733D01*
X0060878Y0079003D01*
X0069498Y0077936D02*
X0073769Y0077936D01*
X0073769Y0081139D02*
X0073769Y0074733D01*
X0075944Y0075801D02*
X0077011Y0076868D01*
X0080214Y0076868D01*
X0080214Y0077936D02*
X0080214Y0074733D01*
X0077011Y0074733D01*
X0075944Y0075801D01*
X0077011Y0079003D02*
X0079147Y0079003D01*
X0080214Y0077936D01*
X0082389Y0079003D02*
X0085592Y0079003D01*
X0086660Y0077936D01*
X0086660Y0074733D01*
X0088835Y0074733D02*
X0092038Y0074733D01*
X0093105Y0075801D01*
X0092038Y0076868D01*
X0089902Y0076868D01*
X0088835Y0077936D01*
X0089902Y0079003D01*
X0093105Y0079003D01*
X0095280Y0077936D02*
X0096348Y0079003D01*
X0098483Y0079003D01*
X0099551Y0077936D01*
X0099551Y0076868D01*
X0095280Y0076868D01*
X0095280Y0075801D02*
X0095280Y0077936D01*
X0095280Y0075801D02*
X0096348Y0074733D01*
X0098483Y0074733D01*
X0101726Y0074733D02*
X0101726Y0079003D01*
X0104929Y0079003D01*
X0105996Y0077936D01*
X0105996Y0074733D01*
X0082389Y0074733D02*
X0082389Y0079003D01*
X0069498Y0081139D02*
X0069498Y0074733D01*
X0149728Y0078433D02*
X0150728Y0078433D01*
X0150728Y0077433D01*
X0149728Y0078433D02*
X0149728Y0084433D01*
X0150728Y0084433D01*
X0150728Y0085433D01*
X0154228Y0093433D02*
X0157728Y0093433D01*
X0167728Y0093433D01*
X0171228Y0093433D01*
X0174728Y0085433D02*
X0174728Y0084433D01*
X0175728Y0084433D01*
X0175728Y0078433D01*
X0174728Y0078433D01*
X0174728Y0077433D01*
X0171228Y0069433D02*
X0167228Y0069433D01*
X0157728Y0069433D01*
X0154228Y0069433D01*
X0161728Y0081433D02*
X0161730Y0081496D01*
X0161736Y0081558D01*
X0161746Y0081620D01*
X0161759Y0081682D01*
X0161777Y0081742D01*
X0161798Y0081801D01*
X0161823Y0081859D01*
X0161852Y0081915D01*
X0161884Y0081969D01*
X0161919Y0082021D01*
X0161957Y0082070D01*
X0161999Y0082118D01*
X0162043Y0082162D01*
X0162091Y0082204D01*
X0162140Y0082242D01*
X0162192Y0082277D01*
X0162246Y0082309D01*
X0162302Y0082338D01*
X0162360Y0082363D01*
X0162419Y0082384D01*
X0162479Y0082402D01*
X0162541Y0082415D01*
X0162603Y0082425D01*
X0162665Y0082431D01*
X0162728Y0082433D01*
X0162791Y0082431D01*
X0162853Y0082425D01*
X0162915Y0082415D01*
X0162977Y0082402D01*
X0163037Y0082384D01*
X0163096Y0082363D01*
X0163154Y0082338D01*
X0163210Y0082309D01*
X0163264Y0082277D01*
X0163316Y0082242D01*
X0163365Y0082204D01*
X0163413Y0082162D01*
X0163457Y0082118D01*
X0163499Y0082070D01*
X0163537Y0082021D01*
X0163572Y0081969D01*
X0163604Y0081915D01*
X0163633Y0081859D01*
X0163658Y0081801D01*
X0163679Y0081742D01*
X0163697Y0081682D01*
X0163710Y0081620D01*
X0163720Y0081558D01*
X0163726Y0081496D01*
X0163728Y0081433D01*
X0163726Y0081370D01*
X0163720Y0081308D01*
X0163710Y0081246D01*
X0163697Y0081184D01*
X0163679Y0081124D01*
X0163658Y0081065D01*
X0163633Y0081007D01*
X0163604Y0080951D01*
X0163572Y0080897D01*
X0163537Y0080845D01*
X0163499Y0080796D01*
X0163457Y0080748D01*
X0163413Y0080704D01*
X0163365Y0080662D01*
X0163316Y0080624D01*
X0163264Y0080589D01*
X0163210Y0080557D01*
X0163154Y0080528D01*
X0163096Y0080503D01*
X0163037Y0080482D01*
X0162977Y0080464D01*
X0162915Y0080451D01*
X0162853Y0080441D01*
X0162791Y0080435D01*
X0162728Y0080433D01*
X0162665Y0080435D01*
X0162603Y0080441D01*
X0162541Y0080451D01*
X0162479Y0080464D01*
X0162419Y0080482D01*
X0162360Y0080503D01*
X0162302Y0080528D01*
X0162246Y0080557D01*
X0162192Y0080589D01*
X0162140Y0080624D01*
X0162091Y0080662D01*
X0162043Y0080704D01*
X0161999Y0080748D01*
X0161957Y0080796D01*
X0161919Y0080845D01*
X0161884Y0080897D01*
X0161852Y0080951D01*
X0161823Y0081007D01*
X0161798Y0081065D01*
X0161777Y0081124D01*
X0161759Y0081184D01*
X0161746Y0081246D01*
X0161736Y0081308D01*
X0161730Y0081370D01*
X0161728Y0081433D01*
X0155728Y0081433D02*
X0155730Y0081605D01*
X0155736Y0081776D01*
X0155747Y0081948D01*
X0155762Y0082119D01*
X0155781Y0082290D01*
X0155804Y0082460D01*
X0155831Y0082630D01*
X0155863Y0082799D01*
X0155898Y0082967D01*
X0155938Y0083134D01*
X0155982Y0083300D01*
X0156029Y0083465D01*
X0156081Y0083629D01*
X0156137Y0083791D01*
X0156197Y0083952D01*
X0156261Y0084112D01*
X0156329Y0084270D01*
X0156400Y0084426D01*
X0156475Y0084580D01*
X0156555Y0084733D01*
X0156637Y0084883D01*
X0156724Y0085032D01*
X0156814Y0085178D01*
X0156908Y0085322D01*
X0157005Y0085464D01*
X0157106Y0085603D01*
X0157210Y0085740D01*
X0157317Y0085874D01*
X0157428Y0086005D01*
X0157541Y0086134D01*
X0157658Y0086260D01*
X0157778Y0086383D01*
X0157901Y0086503D01*
X0158027Y0086620D01*
X0158156Y0086733D01*
X0158287Y0086844D01*
X0158421Y0086951D01*
X0158558Y0087055D01*
X0158697Y0087156D01*
X0158839Y0087253D01*
X0158983Y0087347D01*
X0159129Y0087437D01*
X0159278Y0087524D01*
X0159428Y0087606D01*
X0159581Y0087686D01*
X0159735Y0087761D01*
X0159891Y0087832D01*
X0160049Y0087900D01*
X0160209Y0087964D01*
X0160370Y0088024D01*
X0160532Y0088080D01*
X0160696Y0088132D01*
X0160861Y0088179D01*
X0161027Y0088223D01*
X0161194Y0088263D01*
X0161362Y0088298D01*
X0161531Y0088330D01*
X0161701Y0088357D01*
X0161871Y0088380D01*
X0162042Y0088399D01*
X0162213Y0088414D01*
X0162385Y0088425D01*
X0162556Y0088431D01*
X0162728Y0088433D01*
X0162900Y0088431D01*
X0163071Y0088425D01*
X0163243Y0088414D01*
X0163414Y0088399D01*
X0163585Y0088380D01*
X0163755Y0088357D01*
X0163925Y0088330D01*
X0164094Y0088298D01*
X0164262Y0088263D01*
X0164429Y0088223D01*
X0164595Y0088179D01*
X0164760Y0088132D01*
X0164924Y0088080D01*
X0165086Y0088024D01*
X0165247Y0087964D01*
X0165407Y0087900D01*
X0165565Y0087832D01*
X0165721Y0087761D01*
X0165875Y0087686D01*
X0166028Y0087606D01*
X0166178Y0087524D01*
X0166327Y0087437D01*
X0166473Y0087347D01*
X0166617Y0087253D01*
X0166759Y0087156D01*
X0166898Y0087055D01*
X0167035Y0086951D01*
X0167169Y0086844D01*
X0167300Y0086733D01*
X0167429Y0086620D01*
X0167555Y0086503D01*
X0167678Y0086383D01*
X0167798Y0086260D01*
X0167915Y0086134D01*
X0168028Y0086005D01*
X0168139Y0085874D01*
X0168246Y0085740D01*
X0168350Y0085603D01*
X0168451Y0085464D01*
X0168548Y0085322D01*
X0168642Y0085178D01*
X0168732Y0085032D01*
X0168819Y0084883D01*
X0168901Y0084733D01*
X0168981Y0084580D01*
X0169056Y0084426D01*
X0169127Y0084270D01*
X0169195Y0084112D01*
X0169259Y0083952D01*
X0169319Y0083791D01*
X0169375Y0083629D01*
X0169427Y0083465D01*
X0169474Y0083300D01*
X0169518Y0083134D01*
X0169558Y0082967D01*
X0169593Y0082799D01*
X0169625Y0082630D01*
X0169652Y0082460D01*
X0169675Y0082290D01*
X0169694Y0082119D01*
X0169709Y0081948D01*
X0169720Y0081776D01*
X0169726Y0081605D01*
X0169728Y0081433D01*
X0169726Y0081261D01*
X0169720Y0081090D01*
X0169709Y0080918D01*
X0169694Y0080747D01*
X0169675Y0080576D01*
X0169652Y0080406D01*
X0169625Y0080236D01*
X0169593Y0080067D01*
X0169558Y0079899D01*
X0169518Y0079732D01*
X0169474Y0079566D01*
X0169427Y0079401D01*
X0169375Y0079237D01*
X0169319Y0079075D01*
X0169259Y0078914D01*
X0169195Y0078754D01*
X0169127Y0078596D01*
X0169056Y0078440D01*
X0168981Y0078286D01*
X0168901Y0078133D01*
X0168819Y0077983D01*
X0168732Y0077834D01*
X0168642Y0077688D01*
X0168548Y0077544D01*
X0168451Y0077402D01*
X0168350Y0077263D01*
X0168246Y0077126D01*
X0168139Y0076992D01*
X0168028Y0076861D01*
X0167915Y0076732D01*
X0167798Y0076606D01*
X0167678Y0076483D01*
X0167555Y0076363D01*
X0167429Y0076246D01*
X0167300Y0076133D01*
X0167169Y0076022D01*
X0167035Y0075915D01*
X0166898Y0075811D01*
X0166759Y0075710D01*
X0166617Y0075613D01*
X0166473Y0075519D01*
X0166327Y0075429D01*
X0166178Y0075342D01*
X0166028Y0075260D01*
X0165875Y0075180D01*
X0165721Y0075105D01*
X0165565Y0075034D01*
X0165407Y0074966D01*
X0165247Y0074902D01*
X0165086Y0074842D01*
X0164924Y0074786D01*
X0164760Y0074734D01*
X0164595Y0074687D01*
X0164429Y0074643D01*
X0164262Y0074603D01*
X0164094Y0074568D01*
X0163925Y0074536D01*
X0163755Y0074509D01*
X0163585Y0074486D01*
X0163414Y0074467D01*
X0163243Y0074452D01*
X0163071Y0074441D01*
X0162900Y0074435D01*
X0162728Y0074433D01*
X0162556Y0074435D01*
X0162385Y0074441D01*
X0162213Y0074452D01*
X0162042Y0074467D01*
X0161871Y0074486D01*
X0161701Y0074509D01*
X0161531Y0074536D01*
X0161362Y0074568D01*
X0161194Y0074603D01*
X0161027Y0074643D01*
X0160861Y0074687D01*
X0160696Y0074734D01*
X0160532Y0074786D01*
X0160370Y0074842D01*
X0160209Y0074902D01*
X0160049Y0074966D01*
X0159891Y0075034D01*
X0159735Y0075105D01*
X0159581Y0075180D01*
X0159428Y0075260D01*
X0159278Y0075342D01*
X0159129Y0075429D01*
X0158983Y0075519D01*
X0158839Y0075613D01*
X0158697Y0075710D01*
X0158558Y0075811D01*
X0158421Y0075915D01*
X0158287Y0076022D01*
X0158156Y0076133D01*
X0158027Y0076246D01*
X0157901Y0076363D01*
X0157778Y0076483D01*
X0157658Y0076606D01*
X0157541Y0076732D01*
X0157428Y0076861D01*
X0157317Y0076992D01*
X0157210Y0077126D01*
X0157106Y0077263D01*
X0157005Y0077402D01*
X0156908Y0077544D01*
X0156814Y0077688D01*
X0156724Y0077834D01*
X0156637Y0077983D01*
X0156555Y0078133D01*
X0156475Y0078286D01*
X0156400Y0078440D01*
X0156329Y0078596D01*
X0156261Y0078754D01*
X0156197Y0078914D01*
X0156137Y0079075D01*
X0156081Y0079237D01*
X0156029Y0079401D01*
X0155982Y0079566D01*
X0155938Y0079732D01*
X0155898Y0079899D01*
X0155863Y0080067D01*
X0155831Y0080236D01*
X0155804Y0080406D01*
X0155781Y0080576D01*
X0155762Y0080747D01*
X0155747Y0080918D01*
X0155736Y0081090D01*
X0155730Y0081261D01*
X0155728Y0081433D01*
X0189356Y0033435D02*
X0190224Y0033435D01*
X0189790Y0033435D02*
X0189790Y0031267D01*
X0189356Y0030833D01*
X0188922Y0030833D01*
X0188489Y0031267D01*
X0191435Y0031700D02*
X0192736Y0031700D01*
X0193170Y0032134D01*
X0193170Y0033002D01*
X0192736Y0033435D01*
X0191435Y0033435D01*
X0191435Y0030833D01*
X0194382Y0030833D02*
X0196117Y0030833D01*
X0195249Y0030833D02*
X0195249Y0033435D01*
X0194382Y0032568D01*
D14*
X0018854Y0045933D02*
X0018856Y0046126D01*
X0018863Y0046319D01*
X0018875Y0046512D01*
X0018892Y0046705D01*
X0018913Y0046897D01*
X0018939Y0047088D01*
X0018970Y0047279D01*
X0019005Y0047469D01*
X0019045Y0047658D01*
X0019090Y0047846D01*
X0019139Y0048033D01*
X0019193Y0048219D01*
X0019251Y0048403D01*
X0019314Y0048586D01*
X0019382Y0048767D01*
X0019453Y0048946D01*
X0019530Y0049124D01*
X0019610Y0049300D01*
X0019695Y0049473D01*
X0019784Y0049645D01*
X0019877Y0049814D01*
X0019974Y0049981D01*
X0020076Y0050146D01*
X0020181Y0050308D01*
X0020290Y0050467D01*
X0020404Y0050624D01*
X0020521Y0050777D01*
X0020641Y0050928D01*
X0020766Y0051076D01*
X0020894Y0051221D01*
X0021025Y0051362D01*
X0021160Y0051501D01*
X0021299Y0051636D01*
X0021440Y0051767D01*
X0021585Y0051895D01*
X0021733Y0052020D01*
X0021884Y0052140D01*
X0022037Y0052257D01*
X0022194Y0052371D01*
X0022353Y0052480D01*
X0022515Y0052585D01*
X0022680Y0052687D01*
X0022847Y0052784D01*
X0023016Y0052877D01*
X0023188Y0052966D01*
X0023361Y0053051D01*
X0023537Y0053131D01*
X0023715Y0053208D01*
X0023894Y0053279D01*
X0024075Y0053347D01*
X0024258Y0053410D01*
X0024442Y0053468D01*
X0024628Y0053522D01*
X0024815Y0053571D01*
X0025003Y0053616D01*
X0025192Y0053656D01*
X0025382Y0053691D01*
X0025573Y0053722D01*
X0025764Y0053748D01*
X0025956Y0053769D01*
X0026149Y0053786D01*
X0026342Y0053798D01*
X0026535Y0053805D01*
X0026728Y0053807D01*
X0026921Y0053805D01*
X0027114Y0053798D01*
X0027307Y0053786D01*
X0027500Y0053769D01*
X0027692Y0053748D01*
X0027883Y0053722D01*
X0028074Y0053691D01*
X0028264Y0053656D01*
X0028453Y0053616D01*
X0028641Y0053571D01*
X0028828Y0053522D01*
X0029014Y0053468D01*
X0029198Y0053410D01*
X0029381Y0053347D01*
X0029562Y0053279D01*
X0029741Y0053208D01*
X0029919Y0053131D01*
X0030095Y0053051D01*
X0030268Y0052966D01*
X0030440Y0052877D01*
X0030609Y0052784D01*
X0030776Y0052687D01*
X0030941Y0052585D01*
X0031103Y0052480D01*
X0031262Y0052371D01*
X0031419Y0052257D01*
X0031572Y0052140D01*
X0031723Y0052020D01*
X0031871Y0051895D01*
X0032016Y0051767D01*
X0032157Y0051636D01*
X0032296Y0051501D01*
X0032431Y0051362D01*
X0032562Y0051221D01*
X0032690Y0051076D01*
X0032815Y0050928D01*
X0032935Y0050777D01*
X0033052Y0050624D01*
X0033166Y0050467D01*
X0033275Y0050308D01*
X0033380Y0050146D01*
X0033482Y0049981D01*
X0033579Y0049814D01*
X0033672Y0049645D01*
X0033761Y0049473D01*
X0033846Y0049300D01*
X0033926Y0049124D01*
X0034003Y0048946D01*
X0034074Y0048767D01*
X0034142Y0048586D01*
X0034205Y0048403D01*
X0034263Y0048219D01*
X0034317Y0048033D01*
X0034366Y0047846D01*
X0034411Y0047658D01*
X0034451Y0047469D01*
X0034486Y0047279D01*
X0034517Y0047088D01*
X0034543Y0046897D01*
X0034564Y0046705D01*
X0034581Y0046512D01*
X0034593Y0046319D01*
X0034600Y0046126D01*
X0034602Y0045933D01*
X0034600Y0045740D01*
X0034593Y0045547D01*
X0034581Y0045354D01*
X0034564Y0045161D01*
X0034543Y0044969D01*
X0034517Y0044778D01*
X0034486Y0044587D01*
X0034451Y0044397D01*
X0034411Y0044208D01*
X0034366Y0044020D01*
X0034317Y0043833D01*
X0034263Y0043647D01*
X0034205Y0043463D01*
X0034142Y0043280D01*
X0034074Y0043099D01*
X0034003Y0042920D01*
X0033926Y0042742D01*
X0033846Y0042566D01*
X0033761Y0042393D01*
X0033672Y0042221D01*
X0033579Y0042052D01*
X0033482Y0041885D01*
X0033380Y0041720D01*
X0033275Y0041558D01*
X0033166Y0041399D01*
X0033052Y0041242D01*
X0032935Y0041089D01*
X0032815Y0040938D01*
X0032690Y0040790D01*
X0032562Y0040645D01*
X0032431Y0040504D01*
X0032296Y0040365D01*
X0032157Y0040230D01*
X0032016Y0040099D01*
X0031871Y0039971D01*
X0031723Y0039846D01*
X0031572Y0039726D01*
X0031419Y0039609D01*
X0031262Y0039495D01*
X0031103Y0039386D01*
X0030941Y0039281D01*
X0030776Y0039179D01*
X0030609Y0039082D01*
X0030440Y0038989D01*
X0030268Y0038900D01*
X0030095Y0038815D01*
X0029919Y0038735D01*
X0029741Y0038658D01*
X0029562Y0038587D01*
X0029381Y0038519D01*
X0029198Y0038456D01*
X0029014Y0038398D01*
X0028828Y0038344D01*
X0028641Y0038295D01*
X0028453Y0038250D01*
X0028264Y0038210D01*
X0028074Y0038175D01*
X0027883Y0038144D01*
X0027692Y0038118D01*
X0027500Y0038097D01*
X0027307Y0038080D01*
X0027114Y0038068D01*
X0026921Y0038061D01*
X0026728Y0038059D01*
X0026535Y0038061D01*
X0026342Y0038068D01*
X0026149Y0038080D01*
X0025956Y0038097D01*
X0025764Y0038118D01*
X0025573Y0038144D01*
X0025382Y0038175D01*
X0025192Y0038210D01*
X0025003Y0038250D01*
X0024815Y0038295D01*
X0024628Y0038344D01*
X0024442Y0038398D01*
X0024258Y0038456D01*
X0024075Y0038519D01*
X0023894Y0038587D01*
X0023715Y0038658D01*
X0023537Y0038735D01*
X0023361Y0038815D01*
X0023188Y0038900D01*
X0023016Y0038989D01*
X0022847Y0039082D01*
X0022680Y0039179D01*
X0022515Y0039281D01*
X0022353Y0039386D01*
X0022194Y0039495D01*
X0022037Y0039609D01*
X0021884Y0039726D01*
X0021733Y0039846D01*
X0021585Y0039971D01*
X0021440Y0040099D01*
X0021299Y0040230D01*
X0021160Y0040365D01*
X0021025Y0040504D01*
X0020894Y0040645D01*
X0020766Y0040790D01*
X0020641Y0040938D01*
X0020521Y0041089D01*
X0020404Y0041242D01*
X0020290Y0041399D01*
X0020181Y0041558D01*
X0020076Y0041720D01*
X0019974Y0041885D01*
X0019877Y0042052D01*
X0019784Y0042221D01*
X0019695Y0042393D01*
X0019610Y0042566D01*
X0019530Y0042742D01*
X0019453Y0042920D01*
X0019382Y0043099D01*
X0019314Y0043280D01*
X0019251Y0043463D01*
X0019193Y0043647D01*
X0019139Y0043833D01*
X0019090Y0044020D01*
X0019045Y0044208D01*
X0019005Y0044397D01*
X0018970Y0044587D01*
X0018939Y0044778D01*
X0018913Y0044969D01*
X0018892Y0045161D01*
X0018875Y0045354D01*
X0018863Y0045547D01*
X0018856Y0045740D01*
X0018854Y0045933D01*
X0018854Y0115933D02*
X0018856Y0116126D01*
X0018863Y0116319D01*
X0018875Y0116512D01*
X0018892Y0116705D01*
X0018913Y0116897D01*
X0018939Y0117088D01*
X0018970Y0117279D01*
X0019005Y0117469D01*
X0019045Y0117658D01*
X0019090Y0117846D01*
X0019139Y0118033D01*
X0019193Y0118219D01*
X0019251Y0118403D01*
X0019314Y0118586D01*
X0019382Y0118767D01*
X0019453Y0118946D01*
X0019530Y0119124D01*
X0019610Y0119300D01*
X0019695Y0119473D01*
X0019784Y0119645D01*
X0019877Y0119814D01*
X0019974Y0119981D01*
X0020076Y0120146D01*
X0020181Y0120308D01*
X0020290Y0120467D01*
X0020404Y0120624D01*
X0020521Y0120777D01*
X0020641Y0120928D01*
X0020766Y0121076D01*
X0020894Y0121221D01*
X0021025Y0121362D01*
X0021160Y0121501D01*
X0021299Y0121636D01*
X0021440Y0121767D01*
X0021585Y0121895D01*
X0021733Y0122020D01*
X0021884Y0122140D01*
X0022037Y0122257D01*
X0022194Y0122371D01*
X0022353Y0122480D01*
X0022515Y0122585D01*
X0022680Y0122687D01*
X0022847Y0122784D01*
X0023016Y0122877D01*
X0023188Y0122966D01*
X0023361Y0123051D01*
X0023537Y0123131D01*
X0023715Y0123208D01*
X0023894Y0123279D01*
X0024075Y0123347D01*
X0024258Y0123410D01*
X0024442Y0123468D01*
X0024628Y0123522D01*
X0024815Y0123571D01*
X0025003Y0123616D01*
X0025192Y0123656D01*
X0025382Y0123691D01*
X0025573Y0123722D01*
X0025764Y0123748D01*
X0025956Y0123769D01*
X0026149Y0123786D01*
X0026342Y0123798D01*
X0026535Y0123805D01*
X0026728Y0123807D01*
X0026921Y0123805D01*
X0027114Y0123798D01*
X0027307Y0123786D01*
X0027500Y0123769D01*
X0027692Y0123748D01*
X0027883Y0123722D01*
X0028074Y0123691D01*
X0028264Y0123656D01*
X0028453Y0123616D01*
X0028641Y0123571D01*
X0028828Y0123522D01*
X0029014Y0123468D01*
X0029198Y0123410D01*
X0029381Y0123347D01*
X0029562Y0123279D01*
X0029741Y0123208D01*
X0029919Y0123131D01*
X0030095Y0123051D01*
X0030268Y0122966D01*
X0030440Y0122877D01*
X0030609Y0122784D01*
X0030776Y0122687D01*
X0030941Y0122585D01*
X0031103Y0122480D01*
X0031262Y0122371D01*
X0031419Y0122257D01*
X0031572Y0122140D01*
X0031723Y0122020D01*
X0031871Y0121895D01*
X0032016Y0121767D01*
X0032157Y0121636D01*
X0032296Y0121501D01*
X0032431Y0121362D01*
X0032562Y0121221D01*
X0032690Y0121076D01*
X0032815Y0120928D01*
X0032935Y0120777D01*
X0033052Y0120624D01*
X0033166Y0120467D01*
X0033275Y0120308D01*
X0033380Y0120146D01*
X0033482Y0119981D01*
X0033579Y0119814D01*
X0033672Y0119645D01*
X0033761Y0119473D01*
X0033846Y0119300D01*
X0033926Y0119124D01*
X0034003Y0118946D01*
X0034074Y0118767D01*
X0034142Y0118586D01*
X0034205Y0118403D01*
X0034263Y0118219D01*
X0034317Y0118033D01*
X0034366Y0117846D01*
X0034411Y0117658D01*
X0034451Y0117469D01*
X0034486Y0117279D01*
X0034517Y0117088D01*
X0034543Y0116897D01*
X0034564Y0116705D01*
X0034581Y0116512D01*
X0034593Y0116319D01*
X0034600Y0116126D01*
X0034602Y0115933D01*
X0034600Y0115740D01*
X0034593Y0115547D01*
X0034581Y0115354D01*
X0034564Y0115161D01*
X0034543Y0114969D01*
X0034517Y0114778D01*
X0034486Y0114587D01*
X0034451Y0114397D01*
X0034411Y0114208D01*
X0034366Y0114020D01*
X0034317Y0113833D01*
X0034263Y0113647D01*
X0034205Y0113463D01*
X0034142Y0113280D01*
X0034074Y0113099D01*
X0034003Y0112920D01*
X0033926Y0112742D01*
X0033846Y0112566D01*
X0033761Y0112393D01*
X0033672Y0112221D01*
X0033579Y0112052D01*
X0033482Y0111885D01*
X0033380Y0111720D01*
X0033275Y0111558D01*
X0033166Y0111399D01*
X0033052Y0111242D01*
X0032935Y0111089D01*
X0032815Y0110938D01*
X0032690Y0110790D01*
X0032562Y0110645D01*
X0032431Y0110504D01*
X0032296Y0110365D01*
X0032157Y0110230D01*
X0032016Y0110099D01*
X0031871Y0109971D01*
X0031723Y0109846D01*
X0031572Y0109726D01*
X0031419Y0109609D01*
X0031262Y0109495D01*
X0031103Y0109386D01*
X0030941Y0109281D01*
X0030776Y0109179D01*
X0030609Y0109082D01*
X0030440Y0108989D01*
X0030268Y0108900D01*
X0030095Y0108815D01*
X0029919Y0108735D01*
X0029741Y0108658D01*
X0029562Y0108587D01*
X0029381Y0108519D01*
X0029198Y0108456D01*
X0029014Y0108398D01*
X0028828Y0108344D01*
X0028641Y0108295D01*
X0028453Y0108250D01*
X0028264Y0108210D01*
X0028074Y0108175D01*
X0027883Y0108144D01*
X0027692Y0108118D01*
X0027500Y0108097D01*
X0027307Y0108080D01*
X0027114Y0108068D01*
X0026921Y0108061D01*
X0026728Y0108059D01*
X0026535Y0108061D01*
X0026342Y0108068D01*
X0026149Y0108080D01*
X0025956Y0108097D01*
X0025764Y0108118D01*
X0025573Y0108144D01*
X0025382Y0108175D01*
X0025192Y0108210D01*
X0025003Y0108250D01*
X0024815Y0108295D01*
X0024628Y0108344D01*
X0024442Y0108398D01*
X0024258Y0108456D01*
X0024075Y0108519D01*
X0023894Y0108587D01*
X0023715Y0108658D01*
X0023537Y0108735D01*
X0023361Y0108815D01*
X0023188Y0108900D01*
X0023016Y0108989D01*
X0022847Y0109082D01*
X0022680Y0109179D01*
X0022515Y0109281D01*
X0022353Y0109386D01*
X0022194Y0109495D01*
X0022037Y0109609D01*
X0021884Y0109726D01*
X0021733Y0109846D01*
X0021585Y0109971D01*
X0021440Y0110099D01*
X0021299Y0110230D01*
X0021160Y0110365D01*
X0021025Y0110504D01*
X0020894Y0110645D01*
X0020766Y0110790D01*
X0020641Y0110938D01*
X0020521Y0111089D01*
X0020404Y0111242D01*
X0020290Y0111399D01*
X0020181Y0111558D01*
X0020076Y0111720D01*
X0019974Y0111885D01*
X0019877Y0112052D01*
X0019784Y0112221D01*
X0019695Y0112393D01*
X0019610Y0112566D01*
X0019530Y0112742D01*
X0019453Y0112920D01*
X0019382Y0113099D01*
X0019314Y0113280D01*
X0019251Y0113463D01*
X0019193Y0113647D01*
X0019139Y0113833D01*
X0019090Y0114020D01*
X0019045Y0114208D01*
X0019005Y0114397D01*
X0018970Y0114587D01*
X0018939Y0114778D01*
X0018913Y0114969D01*
X0018892Y0115161D01*
X0018875Y0115354D01*
X0018863Y0115547D01*
X0018856Y0115740D01*
X0018854Y0115933D01*
D15*
X0157728Y0093433D02*
X0157728Y0092433D01*
X0167728Y0092433D01*
X0167728Y0093433D01*
X0167228Y0070433D02*
X0157728Y0070433D01*
X0157728Y0069433D01*
X0167228Y0069433D02*
X0167228Y0070433D01*
D16*
X0101928Y0105433D03*
X0073528Y0105433D03*
M02*
