G75*
%MOIN*%
%OFA0B0*%
%FSLAX25Y25*%
%IPPOS*%
%LPD*%
%AMOC8*
5,1,8,0,0,1.08239X$1,22.5*
%
%ADD10C,0.09061*%
%ADD11C,0.14243*%
%ADD12C,0.07000*%
%ADD13C,0.06400*%
%ADD14OC8,0.06700*%
%ADD15OC8,0.05600*%
D10*
X0206728Y0043183D03*
X0206728Y0118433D03*
D11*
X0026728Y0115933D03*
X0026728Y0045933D03*
D12*
X0041728Y0040933D03*
X0051728Y0040933D03*
X0061728Y0040933D03*
X0071728Y0040933D03*
X0081728Y0040933D03*
X0091728Y0040933D03*
X0101728Y0040933D03*
X0111728Y0040933D03*
X0121728Y0040933D03*
X0131728Y0040933D03*
X0141728Y0040933D03*
X0151728Y0040933D03*
X0161728Y0040933D03*
X0171728Y0040933D03*
X0181728Y0040933D03*
X0191728Y0040933D03*
X0191728Y0120933D03*
X0181728Y0120933D03*
X0171728Y0120933D03*
X0161728Y0120933D03*
X0151728Y0120933D03*
X0141728Y0120933D03*
X0131728Y0120933D03*
X0121728Y0120933D03*
X0111728Y0120933D03*
X0101728Y0120933D03*
X0091728Y0120933D03*
X0081728Y0120933D03*
D13*
X0146928Y0090333D02*
X0152928Y0090333D01*
X0172528Y0090333D02*
X0178528Y0090333D01*
X0178528Y0072533D02*
X0172528Y0072533D01*
X0152928Y0072533D02*
X0146928Y0072533D01*
D14*
X0065228Y0119933D03*
D15*
X0067728Y0105433D03*
X0107728Y0105433D03*
M02*
